<?xml version="1.0" encoding="UTF-8" standalone="no"?>
<!-- Created with Inkscape (http://www.inkscape.org/) -->

<svg
   xmlns:dc="http://purl.org/dc/elements/1.1/"
   xmlns:cc="http://creativecommons.org/ns#"
   xmlns:rdf="http://www.w3.org/1999/02/22-rdf-syntax-ns#"
   xmlns:svg="http://www.w3.org/2000/svg"
   xmlns="http://www.w3.org/2000/svg"
   xmlns:sodipodi="http://sodipodi.sourceforge.net/DTD/sodipodi-0.dtd"
   xmlns:inkscape="http://www.inkscape.org/namespaces/inkscape"
   width="16px"
   height="16px"
   viewBox="0 0 16 16"
   version="1.1"
   id="SVGRoot"
   inkscape:version="0.92.4 (5da689c313, 2019-01-14)"
   sodipodi:docname="0ad.svg">
  <defs
     id="defs10" />
  <sodipodi:namedview
     id="base"
     pagecolor="#ffffff"
     bordercolor="#666666"
     borderopacity="1.0"
     inkscape:pageopacity="0.0"
     inkscape:pageshadow="2"
     inkscape:zoom="22.627417"
     inkscape:cx="5.134462"
     inkscape:cy="7.7217117"
     inkscape:document-units="px"
     inkscape:current-layer="layer1"
     showgrid="true"
     inkscape:window-width="1280"
     inkscape:window-height="753"
     inkscape:window-x="-6"
     inkscape:window-y="-6"
     inkscape:window-maximized="1"
     inkscape:grid-bbox="true"
     showguides="false"
     inkscape:guide-bbox="true">
    <inkscape:grid
       type="xygrid"
       id="grid23" />
  </sodipodi:namedview>
  <metadata
     id="metadata13">
    <rdf:RDF>
      <cc:Work
         rdf:about="">
        <dc:format>image/svg+xml</dc:format>
        <dc:type
           rdf:resource="http://purl.org/dc/dcmitype/StillImage" />
        <dc:title></dc:title>
      </cc:Work>
    </rdf:RDF>
  </metadata>
  <g
     inkscape:label="Layer 1"
     inkscape:groupmode="layer"
     id="layer1">
    <path
       style="opacity:1;vector-effect:none;fill:#3e3546;fill-opacity:1;paint-order:stroke fill markers"
       d="M 5 0 L 5 1 L 3 1 L 3 2 L 2 2 L 2 3 L 1 3 L 1 5 L 0 5 L 0 11 L 1 11 L 1 13 L 2 13 L 2 14 L 3 14 L 3 15 L 5 15 L 5 16 L 11 16 L 11 15 L 13 15 L 13 14 L 14 14 L 14 13 L 15 13 L 15 11 L 16 11 L 16 5 L 15 5 L 15 3 L 14 3 L 14 2 L 13 2 L 13 1 L 11 1 L 11 0 L 5 0 z M 4 4 L 6 4 L 6 6 L 4 6 L 4 4 z M 10 4 L 12 4 L 12 6 L 10 6 L 10 4 z M 4 10 L 6 10 L 6 12 L 4 12 L 4 10 z M 10 10 L 12 10 L 12 12 L 10 12 L 10 10 z "
       id="rect289" />
    <path
       style="opacity:1;vector-effect:none;fill:#ab947a;fill-opacity:1;paint-order:stroke fill markers"
       d="M 5 1 L 5 2 L 3 2 L 3 3 L 2 3 L 2 5 L 1 5 L 1 7 L 1 11 L 2 11 L 2 13 L 3 13 L 3 14 L 5 14 L 5 15 L 11 15 L 11 14 L 13 14 L 13 13 L 14 13 L 14 11 L 15 11 L 15 7 L 15 5 L 14 5 L 14 3 L 13 3 L 13 2 L 11 2 L 11 1 L 5 1 z M 4 3 L 7 3 L 7 4 L 7 7 L 4 7 L 3 7 L 3 4 L 4 4 L 4 3 z M 9 3 L 12 3 L 12 4 L 13 4 L 13 7 L 12 7 L 9 7 L 9 4 L 9 3 z M 3 9 L 4 9 L 7 9 L 7 12 L 7 13 L 4 13 L 4 12 L 3 12 L 3 9 z M 9 9 L 12 9 L 13 9 L 13 12 L 12 12 L 12 13 L 9 13 L 9 12 L 9 9 z "
       id="rect300" />
    <path
       inkscape:connector-curvature="0"
       style="opacity:1;vector-effect:none;fill:#966c6c;fill-opacity:1;paint-order:stroke fill markers"
       d="m 2,12 v 1 h 1 v -1 z m 1,1 v 1 h 2 v -1 z m 2,1 v 1 h 6 v -1 z m 6,0 h 2 v -1 h -2 z m 2,-1 h 1 v -1 h -1 z"
       id="rect460" />
    <path
       inkscape:connector-curvature="0"
       style="opacity:1;vector-effect:none;fill:#e3c896;fill-opacity:1;paint-order:stroke fill markers"
       d="m 5,1 v 1 h 6 V 1 Z m 6,1 v 1 h 2 V 2 Z m 2,1 v 1 h 1 V 3 Z M 5,2 H 3 V 3 H 5 Z M 3,3 H 2 v 1 h 1 z"
       id="rect470" />
    <path
       style="opacity:1;vector-effect:none;fill:#966c6c;fill-opacity:1;stroke-width:1.5;stroke-linecap:butt;stroke-linejoin:miter;stroke-miterlimit:4;stroke-dasharray:none;stroke-dashoffset:0;stroke-opacity:1;paint-order:stroke fill markers"
       d="M 4 2 L 4 3 L 7 3 L 7 2 L 4 2 z M 4 3 L 3 3 L 3 4 L 4 4 L 4 3 z M 9 2 L 9 3 L 12 3 L 12 2 L 9 2 z M 12 3 L 12 4 L 13 4 L 13 3 L 12 3 z M 3 8 L 3 9 L 7 9 L 7 8 L 3 8 z M 9 8 L 9 9 L 13 9 L 13 8 L 9 8 z "
       id="rect540" />
    <path
       style="opacity:1;vector-effect:none;fill:#e3c896;fill-opacity:1;stroke-width:1.5;stroke-linecap:butt;stroke-linejoin:miter;stroke-miterlimit:4;stroke-dasharray:none;stroke-dashoffset:0;stroke-opacity:1;paint-order:stroke fill markers"
       d="M 3 7 L 3 8 L 7 8 L 7 7 L 3 7 z M 9 7 L 9 8 L 13 8 L 13 7 L 9 7 z M 3 12 L 3 13 L 4 13 L 4 12 L 3 12 z M 4 13 L 4 14 L 7 14 L 7 13 L 4 13 z M 12 12 L 12 13 L 13 13 L 13 12 L 12 12 z M 12 13 L 9 13 L 9 14 L 12 14 L 12 13 z "
       id="rect553" />
  </g>
</svg>
