<?xml version="1.0" encoding="UTF-8" standalone="no"?>
<!-- Created with Inkscape (http://www.inkscape.org/) -->

<svg
   xmlns:dc="http://purl.org/dc/elements/1.1/"
   xmlns:cc="http://creativecommons.org/ns#"
   xmlns:rdf="http://www.w3.org/1999/02/22-rdf-syntax-ns#"
   xmlns:svg="http://www.w3.org/2000/svg"
   xmlns="http://www.w3.org/2000/svg"
   xmlns:sodipodi="http://sodipodi.sourceforge.net/DTD/sodipodi-0.dtd"
   xmlns:inkscape="http://www.inkscape.org/namespaces/inkscape"
   width="16px"
   height="16px"
   viewBox="0 0 16 16"
   version="1.1"
   id="SVGRoot"
   inkscape:version="0.92.4 (5da689c313, 2019-01-14)"
   sodipodi:docname="2048.svg">
  <defs
     id="defs10" />
  <sodipodi:namedview
     id="base"
     pagecolor="#ffffff"
     bordercolor="#666666"
     borderopacity="1.0"
     inkscape:pageopacity="0.0"
     inkscape:pageshadow="2"
     inkscape:zoom="22.627417"
     inkscape:cx="7.0668712"
     inkscape:cy="7.301867"
     inkscape:document-units="px"
     inkscape:current-layer="layer1"
     showgrid="true"
     inkscape:window-width="1280"
     inkscape:window-height="753"
     inkscape:window-x="-6"
     inkscape:window-y="-6"
     inkscape:window-maximized="1"
     inkscape:grid-bbox="true"
     showguides="false"
     inkscape:guide-bbox="true">
    <inkscape:grid
       type="xygrid"
       id="grid23" />
  </sodipodi:namedview>
  <metadata
     id="metadata13">
    <rdf:RDF>
      <cc:Work
         rdf:about="">
        <dc:format>image/svg+xml</dc:format>
        <dc:type
           rdf:resource="http://purl.org/dc/dcmitype/StillImage" />
        <dc:title></dc:title>
      </cc:Work>
    </rdf:RDF>
  </metadata>
  <g
     inkscape:label="Layer 1"
     inkscape:groupmode="layer"
     id="layer1">
    <path
       style="opacity:1;vector-effect:none;fill:#3e3546;fill-opacity:1;stroke-width:1.5;stroke-linecap:butt;stroke-linejoin:miter;stroke-miterlimit:4;stroke-dasharray:none;stroke-dashoffset:0;stroke-opacity:1;paint-order:stroke fill markers"
       d="M 1 0 L 1 1 L 0 1 L 0 15 L 1 15 L 1 16 L 15 16 L 15 15 L 16 15 L 16 1 L 15 1 L 15 0 L 1 0 z "
       id="rect698" />
    <rect
       style="opacity:1;vector-effect:none;fill:#fbb954;fill-opacity:1;stroke-width:1.5;stroke-linecap:butt;stroke-linejoin:miter;stroke-miterlimit:4;stroke-dasharray:none;stroke-dashoffset:0;stroke-opacity:1;paint-order:stroke fill markers"
       id="rect703"
       width="14"
       height="14"
       x="1"
       y="1" />
    <rect
       style="opacity:1;vector-effect:none;fill:#cd683d;fill-opacity:1;paint-order:stroke fill markers"
       id="rect794"
       width="14"
       height="1"
       x="1"
       y="14" />
    <rect
       style="opacity:1;vector-effect:none;fill:#fbff86;fill-opacity:1;paint-order:stroke fill markers"
       id="rect798"
       width="14"
       height="1"
       x="1"
       y="1" />
    <path
       style="opacity:1;vector-effect:none;fill:#ffffff;fill-opacity:1;paint-order:stroke fill markers"
       d="M 4 3 L 4 4 L 6 4 L 6 5 L 5 5 L 4 5 L 4 6 L 4 7 L 4 8 L 7 8 L 7 7 L 5 7 L 5 6 L 7 6 L 7 5 L 7 4 L 7 3 L 6 3 L 4 3 z "
       id="rect20" />
    <path
       style="opacity:1;vector-effect:none;fill:#ffffff;fill-opacity:1;paint-order:stroke fill markers"
       d="m 9,3 v 5 h 1 1 1 V 3 h -1 -1 z m 1,1 h 1 v 3 h -1 z"
       id="rect30"
       inkscape:connector-curvature="0" />
    <path
       style="opacity:1;vector-effect:none;fill:#ffffff;fill-opacity:1;paint-order:stroke fill markers"
       d="M 4 9 L 4 12 L 5 12 L 6 12 L 6 14 L 7 14 L 7 9 L 6 9 L 6 11 L 5 11 L 5 9 L 4 9 z "
       id="rect38" />
    <path
       style="opacity:1;vector-effect:none;fill:#ffffff;fill-opacity:1;paint-order:stroke fill markers"
       d="m 9,9 v 1 4 h 1 1 1 V 10 9 Z m 1,1 h 1 v 1 h -1 z m 0,2 h 1 v 1 h -1 z"
       id="rect44"
       inkscape:connector-curvature="0" />
  </g>
</svg>
