<?xml version="1.0" encoding="UTF-8" standalone="no"?>
<!-- Created with Inkscape (http://www.inkscape.org/) -->

<svg
   xmlns:dc="http://purl.org/dc/elements/1.1/"
   xmlns:cc="http://creativecommons.org/ns#"
   xmlns:rdf="http://www.w3.org/1999/02/22-rdf-syntax-ns#"
   xmlns:svg="http://www.w3.org/2000/svg"
   xmlns="http://www.w3.org/2000/svg"
   xmlns:sodipodi="http://sodipodi.sourceforge.net/DTD/sodipodi-0.dtd"
   xmlns:inkscape="http://www.inkscape.org/namespaces/inkscape"
   width="16px"
   height="16px"
   viewBox="0 0 16 16"
   version="1.1"
   id="SVGRoot"
   inkscape:version="0.92.4 (5da689c313, 2019-01-14)"
   sodipodi:docname="2gis.svg">
  <defs
     id="defs10" />
  <sodipodi:namedview
     id="base"
     pagecolor="#ffffff"
     bordercolor="#666666"
     borderopacity="1.0"
     inkscape:pageopacity="0.0"
     inkscape:pageshadow="2"
     inkscape:zoom="22.627417"
     inkscape:cx="5.134462"
     inkscape:cy="7.7217117"
     inkscape:document-units="px"
     inkscape:current-layer="layer1"
     showgrid="true"
     inkscape:window-width="1280"
     inkscape:window-height="753"
     inkscape:window-x="-6"
     inkscape:window-y="-6"
     inkscape:window-maximized="1"
     inkscape:grid-bbox="true"
     showguides="false"
     inkscape:guide-bbox="true">
    <inkscape:grid
       type="xygrid"
       id="grid23" />
  </sodipodi:namedview>
  <metadata
     id="metadata13">
    <rdf:RDF>
      <cc:Work
         rdf:about="">
        <dc:format>image/svg+xml</dc:format>
        <dc:type
           rdf:resource="http://purl.org/dc/dcmitype/StillImage" />
        <dc:title></dc:title>
      </cc:Work>
    </rdf:RDF>
  </metadata>
  <g
     inkscape:label="Layer 1"
     inkscape:groupmode="layer"
     id="layer1">
    <path
       style="opacity:1;vector-effect:none;fill:#3e3546;fill-opacity:1;stroke-width:1.5;stroke-linecap:butt;stroke-linejoin:miter;stroke-miterlimit:4;stroke-dasharray:none;stroke-dashoffset:0;stroke-opacity:1;paint-order:stroke fill markers"
       d="M 1 0 L 1 1 L 0 1 L 0 15 L 1 15 L 1 16 L 15 16 L 15 15 L 16 15 L 16 1 L 15 1 L 15 0 L 1 0 z "
       id="rect698" />
    <rect
       style="opacity:1;vector-effect:none;fill:#91db69;fill-opacity:1;stroke-width:1.5;stroke-linecap:butt;stroke-linejoin:miter;stroke-miterlimit:4;stroke-dasharray:none;stroke-dashoffset:0;stroke-opacity:1;paint-order:stroke fill markers"
       id="rect703"
       width="14"
       height="14"
       x="1"
       y="1" />
    <path
       style="fill:#1ebc73;"
       d="m 1,13 h 3 v -1 h 3 v -1 h 3 v -1 h 3 V 9 h 2 V 7 H 13 V 6 H 10 V 5 H 7 V 4 H 4 V 3 H 1 Z"
       id="path796"
       inkscape:connector-curvature="0" />
    <path
       style="opacity:1;vector-effect:none;fill:#ffffff;fill-opacity:1;paint-order:stroke fill markers"
       d="M 1,2 V 3 H 4 V 2 Z M 4,3 V 4 H 7 V 3 Z m 3,1 v 1 h 3 V 4 Z m 3,1 v 1 h 3 V 5 Z m 3,1 v 1 h 2 V 6 Z"
       id="rect746"
       inkscape:connector-curvature="0" />
    <path
       inkscape:connector-curvature="0"
       style="opacity:1;vector-effect:none;fill:#ffffff;fill-opacity:1;paint-order:stroke fill markers"
       d="m 1,14 v -1 h 3 v 1 z m 3,-1 v -1 h 3 v 1 z m 3,-1 v -1 h 3 v 1 z m 3,-1 v -1 h 3 v 1 z m 3,-1 V 9 h 2 v 1 z"
       id="rect746-3" />
    <path
       style="fill:#fbb954;"
       d="m 13,6 h 2 V 5 1 H 1 v 1 h 3 v 1 h 3 v 1 h 3 v 1 h 3 z"
       id="path800"
       inkscape:connector-curvature="0" />
    <path
       style="opacity:1;vector-effect:none;fill:#ffffff;fill-opacity:1;stroke-width:1.15470052;paint-order:stroke fill markers"
       d="M 6 3 L 6 4 L 5 4 L 5 5 L 4 5 L 4 9 L 6 9 L 6 12 L 9 12 L 9 9 L 11 9 L 11 5 L 10 5 L 10 4 L 9 4 L 9 3 L 6 3 z "
       id="rect724" />
    <path
       style="opacity:1;vector-effect:none;fill:#4d9be6;fill-opacity:1;paint-order:stroke fill markers"
       d="M 6 4 L 6 5 L 5 5 L 5 8 L 7 8 L 7 11 L 8 11 L 8 8 L 10 8 L 10 5 L 9 5 L 9 4 L 6 4 z "
       id="rect775" />
    <rect
       style="opacity:1;vector-effect:none;fill:#4d65b4;fill-opacity:1;paint-order:stroke fill markers"
       id="rect782"
       width="1"
       height="2"
       x="7"
       y="9" />
    <rect
       style="opacity:1;vector-effect:none;fill:#8fd3ff;fill-opacity:1;paint-order:stroke fill markers"
       id="rect788"
       width="2"
       height="2"
       x="6"
       y="5" />
    <rect
       style="opacity:1;vector-effect:none;fill:#1ebc73;fill-opacity:1;paint-order:stroke fill markers"
       id="rect794"
       width="14"
       height="1"
       x="1"
       y="14" />
    <rect
       style="opacity:1;vector-effect:none;fill:#fbff86;fill-opacity:1;paint-order:stroke fill markers"
       id="rect798"
       width="14"
       height="1"
       x="1"
       y="1" />
  </g>
</svg>
