<?xml version="1.0" encoding="UTF-8" standalone="no"?>
<!-- Created with Inkscape (http://www.inkscape.org/) -->

<svg
   xmlns:dc="http://purl.org/dc/elements/1.1/"
   xmlns:cc="http://creativecommons.org/ns#"
   xmlns:rdf="http://www.w3.org/1999/02/22-rdf-syntax-ns#"
   xmlns:svg="http://www.w3.org/2000/svg"
   xmlns="http://www.w3.org/2000/svg"
   xmlns:sodipodi="http://sodipodi.sourceforge.net/DTD/sodipodi-0.dtd"
   xmlns:inkscape="http://www.inkscape.org/namespaces/inkscape"
   width="16px"
   height="16px"
   viewBox="0 0 16 16"
   version="1.1"
   id="SVGRoot"
   inkscape:version="0.92.4 (5da689c313, 2019-01-14)"
   sodipodi:docname="alienarena.svg">
  <defs
     id="defs10" />
  <sodipodi:namedview
     id="base"
     pagecolor="#ffffff"
     bordercolor="#666666"
     borderopacity="1.0"
     inkscape:pageopacity="0.0"
     inkscape:pageshadow="2"
     inkscape:zoom="22.627417"
     inkscape:cx="7.0668712"
     inkscape:cy="10.752655"
     inkscape:document-units="px"
     inkscape:current-layer="layer1"
     showgrid="true"
     inkscape:window-width="1280"
     inkscape:window-height="753"
     inkscape:window-x="-6"
     inkscape:window-y="-6"
     inkscape:window-maximized="1"
     inkscape:grid-bbox="true"
     showguides="false"
     inkscape:guide-bbox="true">
    <inkscape:grid
       type="xygrid"
       id="grid23" />
  </sodipodi:namedview>
  <metadata
     id="metadata13">
    <rdf:RDF>
      <cc:Work
         rdf:about="">
        <dc:format>image/svg+xml</dc:format>
        <dc:type
           rdf:resource="http://purl.org/dc/dcmitype/StillImage" />
        <dc:title></dc:title>
      </cc:Work>
    </rdf:RDF>
  </metadata>
  <g
     inkscape:label="Layer 1"
     inkscape:groupmode="layer"
     id="layer1">
    <path
       inkscape:connector-curvature="0"
       style="opacity:1;vector-effect:none;fill:#3e3546;fill-opacity:1;paint-order:stroke fill markers"
       d="M 5,0 V 1 H 3 V 2 H 2 V 3 H 1 V 5 H 0 v 6 h 1 v 2 h 1 v 1 h 1 v 1 h 2 v 1 h 6 v -1 h 2 v -1 h 1 v -1 h 1 v -2 h 1 V 5 H 15 V 3 H 14 V 2 H 13 V 1 H 11 V 0 Z"
       id="rect289" />
    <path
       inkscape:connector-curvature="0"
       style="opacity:1;vector-effect:none;fill:#1ebc73;fill-opacity:1;paint-order:stroke fill markers"
       d="M 5,1 V 2 H 3 V 3 H 2 V 5 H 1 v 2 4 h 1 v 2 h 1 v 1 h 2 v 1 h 6 v -1 h 2 v -1 h 1 v -2 h 1 V 7 5 H 14 V 3 H 13 V 2 H 11 V 1 Z"
       id="rect300" />
    <path
       inkscape:connector-curvature="0"
       style="opacity:1;vector-effect:none;fill:#0b8a8f;fill-opacity:1;paint-order:stroke fill markers"
       d="m 2,12 v 1 h 1 v -1 z m 1,1 v 1 h 2 v -1 z m 2,1 v 1 h 6 v -1 z m 6,0 h 2 v -1 h -2 z m 2,-1 h 1 v -1 h -1 z"
       id="rect460" />
    <path
       inkscape:connector-curvature="0"
       style="opacity:1;vector-effect:none;fill:#91db69;fill-opacity:1;paint-order:stroke fill markers"
       d="m 5,1 v 1 h 6 V 1 Z m 6,1 v 1 h 2 V 2 Z m 2,1 v 1 h 1 V 3 Z M 5,2 H 3 V 3 H 5 Z M 3,3 H 2 v 1 h 1 z"
       id="rect470" />
    <path
       style="opacity:1;vector-effect:none;fill:#3e3546;fill-opacity:1;paint-order:stroke fill markers"
       d="M 6 2 L 6 3 L 5 3 L 5 4 L 4 4 L 4 5 L 3 5 L 3 6 L 2 6 L 2 9 L 3 9 L 3 10 L 4 10 L 4 11 L 5 11 L 5 12 L 6 12 L 6 13 L 7 13 L 7 14 L 9 14 L 9 13 L 10 13 L 10 12 L 11 12 L 11 11 L 12 11 L 12 10 L 13 10 L 13 9 L 14 9 L 14 6 L 13 6 L 13 5 L 12 5 L 12 4 L 11 4 L 11 3 L 10 3 L 10 2 L 6 2 z "
       id="rect121" />
    <path
       style="opacity:1;vector-effect:none;fill:#0b5e65;fill-opacity:1;paint-order:stroke fill markers"
       d="M 6 3 L 6 4 L 8 4 L 8 3 L 6 3 z M 6 4 L 5 4 L 5 5 L 6 5 L 6 4 z M 5 5 L 4 5 L 4 6 L 5 6 L 5 5 z M 5 6 L 5 7 L 6 7 L 6 6 L 5 6 z M 6 7 L 6 8 L 7 8 L 7 7 L 6 7 z M 7 8 L 7 9 L 8 9 L 8 8 L 7 8 z M 3 8 L 3 9 L 4 9 L 4 8 L 3 8 z M 4 9 L 4 10 L 5 10 L 5 9 L 4 9 z M 5 10 L 5 11 L 6 11 L 6 10 L 5 10 z M 6 11 L 6 12 L 8 12 L 8 11 L 9 11 L 9 10 L 7 10 L 7 11 L 6 11 z "
       id="rect134" />
    <path
       style="opacity:1;vector-effect:none;fill:#831c5d;fill-opacity:1;paint-order:stroke fill markers"
       d="M 4 7 L 4 8 L 5 8 L 5 7 L 4 7 z M 6 9 L 6 10 L 7 10 L 7 9 L 6 9 z "
       id="rect160" />
    <path
       style="opacity:1;vector-effect:none;fill:#c32454;fill-opacity:1;paint-order:stroke fill markers"
       d="M 4 8 L 4 9 L 5 9 L 5 8 L 4 8 z M 5 9 L 5 10 L 6 10 L 6 9 L 5 9 z "
       id="rect164" />
    <rect
       style="opacity:1;vector-effect:none;fill:#f04f78;fill-opacity:1;paint-order:stroke fill markers"
       id="rect168"
       width="1"
       height="1"
       x="5"
       y="8" />
    <path
       inkscape:connector-curvature="0"
       style="opacity:1;vector-effect:none;fill:#831c5d;fill-opacity:1;paint-order:stroke fill markers"
       d="M 12,7 V 8 H 11 V 7 Z m -2,2 v 1 H 9 V 9 Z"
       id="rect160-6" />
    <path
       inkscape:connector-curvature="0"
       style="opacity:1;vector-effect:none;fill:#c32454;fill-opacity:1;paint-order:stroke fill markers"
       d="M 12,8 V 9 H 11 V 8 Z m -1,1 v 1 H 10 V 9 Z"
       id="rect164-2" />
    <rect
       style="opacity:1;vector-effect:none;fill:#f04f78;fill-opacity:1;paint-order:stroke fill markers"
       id="rect168-9"
       width="1"
       height="1"
       x="-11"
       y="8"
       transform="scale(-1,1)" />
  </g>
</svg>
