<?xml version="1.0" encoding="UTF-8" standalone="no"?>
<!-- Created with Inkscape (http://www.inkscape.org/) -->

<svg
   xmlns:dc="http://purl.org/dc/elements/1.1/"
   xmlns:cc="http://creativecommons.org/ns#"
   xmlns:rdf="http://www.w3.org/1999/02/22-rdf-syntax-ns#"
   xmlns:svg="http://www.w3.org/2000/svg"
   xmlns="http://www.w3.org/2000/svg"
   xmlns:sodipodi="http://sodipodi.sourceforge.net/DTD/sodipodi-0.dtd"
   xmlns:inkscape="http://www.inkscape.org/namespaces/inkscape"
   width="16px"
   height="16px"
   viewBox="0 0 16 16"
   version="1.1"
   id="SVGRoot"
   inkscape:version="0.92.4 (5da689c313, 2019-01-14)"
   sodipodi:docname="ardour.svg">
  <defs
     id="defs10" />
  <sodipodi:namedview
     id="base"
     pagecolor="#ffffff"
     bordercolor="#666666"
     borderopacity="1.0"
     inkscape:pageopacity="0.0"
     inkscape:pageshadow="2"
     inkscape:zoom="32"
     inkscape:cx="1.7258371"
     inkscape:cy="7.3164094"
     inkscape:document-units="px"
     inkscape:current-layer="layer1"
     showgrid="true"
     inkscape:window-width="1280"
     inkscape:window-height="753"
     inkscape:window-x="-6"
     inkscape:window-y="-6"
     inkscape:window-maximized="1"
     inkscape:grid-bbox="true"
     showguides="true"
     inkscape:guide-bbox="true">
    <inkscape:grid
       type="xygrid"
       id="grid23" />
  </sodipodi:namedview>
  <metadata
     id="metadata13">
    <rdf:RDF>
      <cc:Work
         rdf:about="">
        <dc:format>image/svg+xml</dc:format>
        <dc:type
           rdf:resource="http://purl.org/dc/dcmitype/StillImage" />
        <dc:title />
      </cc:Work>
    </rdf:RDF>
  </metadata>
  <g
     inkscape:label="Layer 1"
     inkscape:groupmode="layer"
     id="layer1">
    <path
       style="opacity:1;vector-effect:none;fill:#3e3546;fill-opacity:1;paint-order:stroke fill markers"
       d="M 7 0 L 7 1 L 6 1 L 6 3 L 5 3 L 5 5 L 4 5 L 4 7 L 3 7 L 3 9 L 2 9 L 2 11 L 1 11 L 1 12 L 0 12 L 0 16 L 16 16 L 16 12 L 15 12 L 15 11 L 14 11 L 14 9 L 13 9 L 13 7 L 12 7 L 12 5 L 11 5 L 11 3 L 10 3 L 10 1 L 9 1 L 9 0 L 7 0 z "
       id="rect2302" />
    <path
       style="opacity:1;vector-effect:none;fill:#c32454;fill-opacity:1;paint-order:stroke fill markers"
       d="M 7 1 L 7 3 L 6 3 L 6 5 L 5 5 L 5 7 L 4 7 L 4 9 L 3 9 L 3 11 L 2 11 L 2 13 L 1 13 L 1 15 L 15 15 L 15 13 L 14 13 L 14 11 L 13 11 L 13 9 L 12 9 L 12 7 L 11 7 L 11 5 L 10 5 L 10 3 L 9 3 L 9 1 L 7 1 z "
       id="rect2272" />
    <path
       style="opacity:1;vector-effect:none;fill:#831c5d;fill-opacity:1;paint-order:stroke fill markers"
       d="m 1,13 v 2 h 14 v -2 h -1 v 1 H 2 v -1 z"
       id="rect2318"
       inkscape:connector-curvature="0"
       sodipodi:nodetypes="ccccccccc" />
    <path
       style="opacity:1;vector-effect:none;fill:#ffffff;fill-opacity:1;paint-order:stroke fill markers"
       d="M 6 10 L 6 13 L 5 13 L 5 11 L 4 11 L 4 13 L 3 13 L 3 14 L 2 14 L 2 15 L 13 15 L 13 14 L 13 13 L 12 13 L 12 14 L 11 14 L 11 13 L 11 11 L 10 11 L 10 13 L 9 13 L 9 10 L 8 10 L 8 13 L 7 13 L 7 10 L 6 10 z "
       id="rect2287" />
    <path
       style="opacity:1;vector-effect:none;fill:#f04f78;fill-opacity:1;paint-order:stroke fill markers"
       d="M 7 1 L 7 2 L 9 2 L 9 1 L 7 1 z M 6 3 L 6 4 L 7 4 L 7 3 L 6 3 z M 9 3 L 9 4 L 10 4 L 10 3 L 9 3 z M 5 5 L 5 6 L 6 6 L 6 5 L 5 5 z M 10 5 L 10 6 L 11 6 L 11 5 L 10 5 z M 4 7 L 4 8 L 5 8 L 5 7 L 4 7 z M 11 7 L 11 8 L 12 8 L 12 7 L 11 7 z M 3 9 L 3 10 L 4 10 L 4 9 L 3 9 z M 12 9 L 12 10 L 13 10 L 13 9 L 12 9 z "
       id="rect2325" />
  </g>
</svg>
