<?xml version="1.0" encoding="UTF-8" standalone="no"?>
<!-- Created with Inkscape (http://www.inkscape.org/) -->

<svg
   xmlns:dc="http://purl.org/dc/elements/1.1/"
   xmlns:cc="http://creativecommons.org/ns#"
   xmlns:rdf="http://www.w3.org/1999/02/22-rdf-syntax-ns#"
   xmlns:svg="http://www.w3.org/2000/svg"
   xmlns="http://www.w3.org/2000/svg"
   xmlns:sodipodi="http://sodipodi.sourceforge.net/DTD/sodipodi-0.dtd"
   xmlns:inkscape="http://www.inkscape.org/namespaces/inkscape"
   width="16px"
   height="16px"
   viewBox="0 0 16 16"
   version="1.1"
   id="SVGRoot"
   inkscape:version="0.92.4 (5da689c313, 2019-01-14)"
   sodipodi:docname="ark.svg">
  <defs
     id="defs10" />
  <sodipodi:namedview
     id="base"
     pagecolor="#ffffff"
     bordercolor="#666666"
     borderopacity="1.0"
     inkscape:pageopacity="0.0"
     inkscape:pageshadow="2"
     inkscape:zoom="8"
     inkscape:cx="28.3125"
     inkscape:cy="6.8965647"
     inkscape:document-units="px"
     inkscape:current-layer="layer1"
     showgrid="true"
     inkscape:window-width="1280"
     inkscape:window-height="753"
     inkscape:window-x="-6"
     inkscape:window-y="-6"
     inkscape:window-maximized="1"
     inkscape:grid-bbox="true"
     showguides="true"
     inkscape:guide-bbox="true">
    <inkscape:grid
       type="xygrid"
       id="grid23" />
  </sodipodi:namedview>
  <metadata
     id="metadata13">
    <rdf:RDF>
      <cc:Work
         rdf:about="">
        <dc:format>image/svg+xml</dc:format>
        <dc:type
           rdf:resource="http://purl.org/dc/dcmitype/StillImage" />
        <dc:title></dc:title>
      </cc:Work>
    </rdf:RDF>
  </metadata>
  <g
     inkscape:label="Layer 1"
     inkscape:groupmode="layer"
     id="layer1">
    <path
       style="opacity:1;vector-effect:none;fill:#3e3546;fill-opacity:1;paint-order:stroke fill markers"
       d="M 2 0 L 2 1 L 1 1 L 1 2 L 0 2 L 0 14 L 1 14 L 1 15 L 2 15 L 2 16 L 14 16 L 14 15 L 15 15 L 15 14 L 16 14 L 16 2 L 15 2 L 15 1 L 14 1 L 14 0 L 10 0 L 10 1 L 8 1 L 8 2 L 7 2 L 7 1 L 5 1 L 5 0 L 2 0 z "
       id="rect120" />
    <path
       style="opacity:1;vector-effect:none;fill:#1ebc73;fill-opacity:1;paint-order:stroke fill markers"
       d="M 2 1 L 2 2 L 1 2 L 1 14 L 2 14 L 2 15 L 14 15 L 14 14 L 15 14 L 15 2 L 14 2 L 14 1 L 10 1 L 10 2 L 8 2 L 7 2 L 5 2 L 5 1 L 2 1 z "
       id="rect126" />
    <path
       style="opacity:1;vector-effect:none;fill:#0b8a8f;fill-opacity:1;paint-order:stroke fill markers"
       d="M 1 13 L 1 14 L 2 14 L 2 13 L 1 13 z M 2 14 L 2 15 L 14 15 L 14 14 L 2 14 z M 14 14 L 15 14 L 15 13 L 14 13 L 14 14 z "
       id="rect139" />
    <rect
       style="opacity:1;vector-effect:none;fill:#3e3546;fill-opacity:1;paint-order:stroke fill markers"
       id="rect150"
       width="1"
       height="6"
       x="7"
       y="2" />
    <rect
       style="opacity:1;vector-effect:none;fill:#3e3546;fill-opacity:1;paint-order:stroke fill markers"
       id="rect152"
       width="1"
       height="3"
       x="6"
       y="8" />
    <rect
       style="opacity:1;vector-effect:none;fill:#3e3546;fill-opacity:1;paint-order:stroke fill markers"
       id="rect154"
       width="1"
       height="3"
       x="8"
       y="8" />
    <rect
       style="opacity:1;vector-effect:none;fill:#3e3546;fill-opacity:1;paint-order:stroke fill markers"
       id="rect158"
       width="3"
       height="1"
       x="6"
       y="11" />
    <rect
       style="opacity:1;vector-effect:none;fill:#3e3546;fill-opacity:1;stroke-width:1;paint-order:stroke fill markers"
       id="rect176"
       width="3"
       height="1"
       x="6"
       y="3" />
    <rect
       style="opacity:1;vector-effect:none;fill:#3e3546;fill-opacity:1;stroke-width:1.73205078;paint-order:stroke fill markers"
       id="rect178"
       width="3"
       height="1"
       x="6"
       y="5" />
    <rect
       style="opacity:1;vector-effect:none;fill:#966c6c;fill-opacity:1;paint-order:stroke fill markers"
       id="rect180"
       width="1"
       height="3"
       x="7"
       y="8" />
    <rect
       style="opacity:1;vector-effect:none;fill:#ab947a;fill-opacity:1;paint-order:stroke fill markers"
       id="rect182"
       width="1"
       height="1"
       x="7"
       y="8" />
    <rect
       style="opacity:1;vector-effect:none;fill:#625565;fill-opacity:1;paint-order:stroke fill markers"
       id="rect184"
       width="1"
       height="1"
       x="7"
       y="10" />
    <path
       style="opacity:1;vector-effect:none;fill:#91db69;fill-opacity:1;paint-order:stroke fill markers"
       d="M 2 1 L 2 2 L 5 2 L 5 1 L 2 1 z M 5 2 L 5 3 L 7 3 L 7 2 L 5 2 z M 2 2 L 1 2 L 1 3 L 2 3 L 2 2 z M 10 1 L 10 2 L 14 2 L 14 1 L 10 1 z M 14 2 L 14 3 L 15 3 L 15 2 L 14 2 z M 10 2 L 8 2 L 8 3 L 10 3 L 10 2 z M 6 4 L 6 5 L 7 5 L 7 4 L 6 4 z M 8 4 L 8 5 L 9 5 L 9 4 L 8 4 z M 6 6 L 6 7 L 7 7 L 7 6 L 6 6 z M 8 6 L 8 7 L 9 7 L 9 6 L 8 6 z "
       id="rect186" />
  </g>
</svg>
