<?xml version="1.0" encoding="UTF-8" standalone="no"?>
<!-- Created with Inkscape (http://www.inkscape.org/) -->

<svg
   xmlns:dc="http://purl.org/dc/elements/1.1/"
   xmlns:cc="http://creativecommons.org/ns#"
   xmlns:rdf="http://www.w3.org/1999/02/22-rdf-syntax-ns#"
   xmlns:svg="http://www.w3.org/2000/svg"
   xmlns="http://www.w3.org/2000/svg"
   xmlns:sodipodi="http://sodipodi.sourceforge.net/DTD/sodipodi-0.dtd"
   xmlns:inkscape="http://www.inkscape.org/namespaces/inkscape"
   width="16px"
   height="16px"
   viewBox="0 0 16 16"
   version="1.1"
   id="SVGRoot"
   inkscape:version="0.92.4 (5da689c313, 2019-01-14)"
   sodipodi:docname="astromenace.svg">
  <defs
     id="defs10" />
  <sodipodi:namedview
     id="base"
     pagecolor="#ffffff"
     bordercolor="#666666"
     borderopacity="1.0"
     inkscape:pageopacity="0.0"
     inkscape:pageshadow="2"
     inkscape:zoom="22.627417"
     inkscape:cx="2.3693447"
     inkscape:cy="10.752655"
     inkscape:document-units="px"
     inkscape:current-layer="layer1"
     showgrid="true"
     inkscape:window-width="1280"
     inkscape:window-height="753"
     inkscape:window-x="-6"
     inkscape:window-y="-6"
     inkscape:window-maximized="1"
     inkscape:grid-bbox="true"
     showguides="false"
     inkscape:guide-bbox="true">
    <inkscape:grid
       type="xygrid"
       id="grid23" />
  </sodipodi:namedview>
  <metadata
     id="metadata13">
    <rdf:RDF>
      <cc:Work
         rdf:about="">
        <dc:format>image/svg+xml</dc:format>
        <dc:type
           rdf:resource="http://purl.org/dc/dcmitype/StillImage" />
        <dc:title></dc:title>
      </cc:Work>
    </rdf:RDF>
  </metadata>
  <g
     inkscape:label="Layer 1"
     inkscape:groupmode="layer"
     id="layer1">
    <path
       style="opacity:1;vector-effect:none;fill:#3e3546;fill-opacity:1;paint-order:stroke fill markers"
       d="M 3,0 V 2 H 2 V 4 H 1 V 6 H 0 v 2 4 3 h 1 v 1 H 3 V 12 H 4 V 9 h 1 v 3 h 1 v 1 h 4 v -1 h 1 V 9 h 1 v 3 h 1 v 3 1 h 2 v -1 h 1 V 6 H 15 V 4 H 14 V 2 H 13 V 0 H 10 V 2 H 6 V 0 Z"
       id="rect212"
       inkscape:connector-curvature="0" />
    <path
       style="opacity:1;vector-effect:none;fill:#625565;fill-opacity:1;paint-order:stroke fill markers"
       d="M 4,1 V 2 H 3 V 4 H 2 V 6 H 1 v 9 H 2 V 12 H 3 V 9 H 4 V 8 h 1 v 1 h 1 v 3 h 4 V 9 h 1 V 8 h 1 v 1 h 1 v 3 h 1 v 3 h 1 V 6 H 14 V 4 H 13 V 2 H 12 V 1 H 11 V 4 H 10 V 3 H 6 V 4 H 5 V 1 Z"
       id="rect267"
       inkscape:connector-curvature="0"
       sodipodi:nodetypes="ccccccccccccccccccccccccccccccccccccccccccccc" />
    <path
       style="opacity:1;vector-effect:none;fill:#966c6c;fill-opacity:1;paint-order:stroke fill markers"
       d="M 6,4 V 5 H 4 V 6 H 2 1 v 7 H 2 V 11 H 3 V 9 H 4 V 8 H 5 V 6 h 1 v 6 h 4 V 6 h 1 v 2 h 1 v 1 h 1 v 2 h 1 v 2 h 1 V 6 H 14 12 V 5 H 10 V 4 Z"
       id="rect293"
       inkscape:connector-curvature="0" />
    <path
       style="opacity:1;vector-effect:none;fill:#ab947a;fill-opacity:1;paint-order:stroke fill markers"
       d="M 3 4 L 3 5 L 2 5 L 2 6 L 1 6 L 1 7 L 1 8 L 1 11 L 2 11 L 2 8 L 3 8 L 3 7 L 7 7 L 7 8 L 9 8 L 9 7 L 13 7 L 13 8 L 14 8 L 14 11 L 15 11 L 15 8 L 15 7 L 15 6 L 14 6 L 14 5 L 13 5 L 13 4 L 11 4 L 11 5 L 12 5 L 12 6 L 10 6 L 10 5 L 6 5 L 6 6 L 4 6 L 4 5 L 5 5 L 5 4 L 3 4 z "
       id="rect332" />
    <rect
       style="opacity:1;vector-effect:none;fill:#8fd3ff;fill-opacity:1;paint-order:stroke fill markers"
       id="rect355"
       width="2"
       height="3"
       x="7"
       y="8" />
    <rect
       style="opacity:1;vector-effect:none;fill:#4d9be6;fill-opacity:1;paint-order:stroke fill markers"
       id="rect357"
       width="2"
       height="1"
       x="7"
       y="8" />
    <rect
       style="opacity:1;vector-effect:none;fill:#ffffff;fill-opacity:1;paint-order:stroke fill markers"
       id="rect359"
       width="1"
       height="1"
       x="9"
       y="11" />
    <rect
       style="opacity:1;vector-effect:none;fill:#ffffff;fill-opacity:1;paint-order:stroke fill markers"
       id="rect361"
       width="1"
       height="1"
       x="6"
       y="11" />
  </g>
</svg>
