<?xml version="1.0" encoding="UTF-8" standalone="no"?>
<!-- Created with Inkscape (http://www.inkscape.org/) -->

<svg
   xmlns:dc="http://purl.org/dc/elements/1.1/"
   xmlns:cc="http://creativecommons.org/ns#"
   xmlns:rdf="http://www.w3.org/1999/02/22-rdf-syntax-ns#"
   xmlns:svg="http://www.w3.org/2000/svg"
   xmlns="http://www.w3.org/2000/svg"
   xmlns:sodipodi="http://sodipodi.sourceforge.net/DTD/sodipodi-0.dtd"
   xmlns:inkscape="http://www.inkscape.org/namespaces/inkscape"
   width="16px"
   height="16px"
   viewBox="0 0 16 16"
   version="1.1"
   id="SVGRoot"
   inkscape:version="0.92.4 (5da689c313, 2019-01-14)"
   sodipodi:docname="blender.svg">
  <defs
     id="defs10" />
  <sodipodi:namedview
     id="base"
     pagecolor="#ffffff"
     bordercolor="#666666"
     borderopacity="1.0"
     inkscape:pageopacity="0.0"
     inkscape:pageshadow="2"
     inkscape:zoom="22.627417"
     inkscape:cx="4.4554196"
     inkscape:cy="6.9864053"
     inkscape:document-units="px"
     inkscape:current-layer="layer1"
     showgrid="true"
     inkscape:window-width="1280"
     inkscape:window-height="753"
     inkscape:window-x="-6"
     inkscape:window-y="-6"
     inkscape:window-maximized="1"
     inkscape:grid-bbox="true"
     showguides="false">
    <inkscape:grid
       type="xygrid"
       id="grid23" />
  </sodipodi:namedview>
  <metadata
     id="metadata13">
    <rdf:RDF>
      <cc:Work
         rdf:about="">
        <dc:format>image/svg+xml</dc:format>
        <dc:type
           rdf:resource="http://purl.org/dc/dcmitype/StillImage" />
        <dc:title></dc:title>
      </cc:Work>
    </rdf:RDF>
  </metadata>
  <g
     inkscape:label="Layer 1"
     inkscape:groupmode="layer"
     id="layer1">
    <path
       style="opacity:1;vector-effect:none;fill:#3e3546;fill-opacity:1;paint-order:stroke fill markers"
       d="M 7 0 L 7 1 L 6 1 L 6 3 L 7 3 L 7 4 L 1 4 L 1 5 L 0 5 L 0 7 L 1 7 L 1 8 L 2 8 L 2 9 L 1 9 L 1 10 L 0 10 L 0 12 L 1 12 L 1 13 L 3 13 L 3 12 L 4 12 L 4 13 L 5 13 L 5 14 L 6 14 L 6 15 L 7 15 L 7 16 L 13 16 L 13 15 L 14 15 L 14 14 L 15 14 L 15 13 L 16 13 L 16 7 L 15 7 L 15 6 L 14 6 L 14 5 L 13 5 L 13 4 L 12 4 L 12 3 L 11 3 L 11 2 L 10 2 L 10 1 L 9 1 L 9 0 L 7 0 z "
       id="rect39-3" />
    <path
       style="opacity:1;vector-effect:none;fill:#fbb954;fill-opacity:1;paint-order:stroke fill markers"
       d="M 7,1 V 3 H 8 V 4 H 9 V 5 H 1 V 7 H 4 V 8 H 3 V 9 H 2 v 1 H 1 v 2 h 2 v -1 h 1 v -1 h 1 v 3 h 1 v 1 h 1 v 1 h 6 v -1 h 1 v -1 h 1 V 7 H 14 V 6 H 13 V 5 H 12 V 4 H 11 V 3 H 10 V 2 H 9 V 1 Z"
       id="rect93"
       inkscape:connector-curvature="0" />
    <path
       style="opacity:1;vector-effect:none;fill:#ffffff;fill-opacity:1;stroke-width:1.15470052;paint-order:stroke fill markers"
       d="M 9 6 L 9 7 L 7 7 L 7 9 L 6 9 L 6 11 L 7 11 L 7 13 L 9 13 L 9 14 L 11 14 L 11 13 L 13 13 L 13 11 L 14 11 L 14 9 L 13 9 L 13 7 L 11 7 L 11 6 L 9 6 z "
       id="rect130" />
    <path
       style="opacity:1;vector-effect:none;fill:#4d9be6;fill-opacity:1;paint-order:stroke fill markers"
       d="M 9 8 L 9 9 L 8 9 L 8 11 L 9 11 L 9 12 L 11 12 L 11 11 L 12 11 L 12 9 L 11 9 L 11 8 L 9 8 z "
       id="rect137" />
    <rect
       style="opacity:1;vector-effect:none;fill:#8fd3ff;fill-opacity:1;paint-order:stroke fill markers"
       id="rect142"
       width="2"
       height="1"
       x="9"
       y="9" />
    <path
       style="opacity:1;vector-effect:none;fill:#4d65b4;fill-opacity:1;paint-order:stroke fill markers"
       d="M 8 10 L 8 11 L 9 11 L 9 10 L 8 10 z M 9 11 L 9 12 L 11 12 L 11 11 L 9 11 z M 11 11 L 12 11 L 12 10 L 11 10 L 11 11 z "
       id="rect144" />
    <path
       style="opacity:1;vector-effect:none;fill:#fbff86;fill-opacity:1;paint-order:stroke fill markers"
       d="M 7 1 L 7 2 L 9 2 L 9 1 L 7 1 z M 9 2 L 9 3 L 10 3 L 10 2 L 9 2 z M 10 3 L 10 4 L 11 4 L 11 3 L 10 3 z M 11 4 L 11 5 L 12 5 L 12 4 L 11 4 z M 12 5 L 12 6 L 13 6 L 13 5 L 12 5 z M 13 6 L 13 7 L 14 7 L 14 6 L 13 6 z M 14 7 L 14 8 L 15 8 L 15 7 L 14 7 z M 1 5 L 1 6 L 9 6 L 9 5 L 1 5 z M 3 8 L 3 9 L 4 9 L 4 8 L 3 8 z M 3 9 L 2 9 L 2 10 L 3 10 L 3 9 z M 2 10 L 1 10 L 1 11 L 2 11 L 2 10 z "
       id="rect162" />
    <path
       style="opacity:1;vector-effect:none;fill:#cd683d;fill-opacity:1;paint-order:stroke fill markers"
       d="M 6 13 L 6 14 L 7 14 L 7 13 L 6 13 z M 7 14 L 7 15 L 13 15 L 13 14 L 7 14 z M 13 14 L 14 14 L 14 13 L 13 13 L 13 14 z "
       id="rect185" />
  </g>
</svg>
