<?xml version="1.0" encoding="UTF-8" standalone="no"?>
<!-- Created with Inkscape (http://www.inkscape.org/) -->

<svg
   width="16"
   height="16"
   viewBox="0 0 4.2333333 4.2333335"
   version="1.1"
   id="svg5"
   inkscape:version="1.1 (c4e8f9ed74, 2021-05-24)"
   sodipodi:docname="clock.svg"
   xmlns:inkscape="http://www.inkscape.org/namespaces/inkscape"
   xmlns:sodipodi="http://sodipodi.sourceforge.net/DTD/sodipodi-0.dtd"
   xmlns="http://www.w3.org/2000/svg"
   xmlns:svg="http://www.w3.org/2000/svg">
  <sodipodi:namedview
     id="namedview7"
     pagecolor="#ffffff"
     bordercolor="#666666"
     borderopacity="1.0"
     inkscape:pageshadow="2"
     inkscape:pageopacity="0"
     inkscape:pagecheckerboard="false"
     inkscape:document-units="mm"
     showgrid="true"
     units="px"
     width="16px"
     inkscape:zoom="19"
     inkscape:cx="9.6578946"
     inkscape:cy="8.6052631"
     inkscape:window-width="1440"
     inkscape:window-height="831"
     inkscape:window-x="1280"
     inkscape:window-y="32"
     inkscape:window-maximized="1"
     inkscape:current-layer="layer1">
    <inkscape:grid
       type="xygrid"
       id="grid824"
       empspacing="4" />
  </sodipodi:namedview>
  <defs
     id="defs2" />
  <g
     inkscape:label="Ebene 1"
     inkscape:groupmode="layer"
     id="layer1">
    <path
       style="fill:#3e3546;fill-opacity:1;stroke:none;stroke-width:0.264583px;stroke-linecap:butt;stroke-linejoin:miter;stroke-opacity:1"
       d="m 1.3229167,0 h 1.5875 V 0.26458333 H 3.4395834 V 0.52916666 H 3.7041667 V 0.79374999 H 3.9687501 V 1.3229166 h 0.2645833 v 1.5875 H 3.9687501 V 3.4395833 H 3.7041667 V 3.7041666 H 3.4395834 V 3.96875 H 2.9104167 v 0.2645833 h -1.5875 V 3.96875 H 0.79375007 V 3.7041666 H 0.52916677 V 3.4395833 H 0.26458337 V 2.9104166 H 6.6666666e-8 v -1.5875 H 0.26458337 V 0.79374999 h 0.2645834 V 0.52916666 h 0.2645833 V 0.26458333 H 1.3229167 Z"
       id="path13035" />
    <path
       style="fill:#8fd3ff;fill-opacity:1;stroke:none;stroke-width:0.264583px;stroke-linecap:butt;stroke-linejoin:miter;stroke-opacity:1"
       d="m 1.3229167,0.26458333 h 1.5875 V 0.52916666 H 3.4395834 V 0.79374999 H 3.7041667 V 1.3229166 H 3.9687501 V 1.5875 H 0.26458337 V 1.3229166 h 0.2645833 V 0.79374999 h 0.2645834 V 0.52916666 H 1.3229167"
       id="path16620"
       sodipodi:nodetypes="cccccccccccccccc" />
    <path
       style="fill:#4d65b4;fill-opacity:1;stroke:none;stroke-width:0.264583px;stroke-linecap:butt;stroke-linejoin:miter;stroke-opacity:1"
       d="m 2.9104167,3.96875 h -1.5875 V 3.7041667 H 0.79374997 V 3.4395833 H 0.52916667 V 2.9104167 H 0.26458327 V 2.6458333 H 3.96875 V 2.9104167 H 3.7041667 V 3.4395833 H 3.4395833 V 3.7041667 H 2.9104167"
       id="path19626"
       sodipodi:nodetypes="cccccccccccccccc" />
    <path
       style="fill:#4d9be6;fill-opacity:1;stroke:none;stroke-width:0.264583px;stroke-linecap:butt;stroke-linejoin:miter;stroke-opacity:1"
       d="m 0.26458347,2.6458333 h 0.2645833 V 3.175 h 0.2645833 V 3.4395833 H 1.3229167 v 0.2645833 h 1.5875 V 3.4395833 H 3.4395834 V 3.175 h 0.264583 V 2.6458333 h 0.264584 V 1.5875 H 3.7041664 V 1.0583333 H 3.4395834 V 0.79375003 H 2.9104167 V 0.5291667 h -1.5875 V 0.79375003 H 0.79375007 V 1.0583333 H 0.52916677 V 1.5875 h -0.2645833 z"
       id="path276" />
    <rect
       style="fill:#c32454;fill-opacity:1;stroke:none;stroke-width:0.264583"
       id="rect4579"
       width="0.52916664"
       height="1.3229166"
       x="1.8520834"
       y="2.3812499" />
    <path
       style="fill:#ffffff;fill-opacity:1;stroke:none;stroke-width:0.264583px;stroke-linecap:butt;stroke-linejoin:miter;stroke-opacity:1"
       d="M 1.0583333,1.0583333 H 1.5875 V 1.3229166 H 1.8520833 V 1.5875 H 2.38125 V 1.3229166 H 2.6458333 V 1.0583333 H 2.9104166 V 0.79374999 H 3.4395833 V 1.3229166 H 3.175 V 1.5875 H 2.9104166 V 1.8520833 H 2.6458333 V 2.1166666 H 1.5875 V 1.8520833 H 1.3229166 V 1.5875 H 1.0583333"
       id="path21964"
       sodipodi:nodetypes="cccccccccccccccccccccccc" />
    <rect
       style="fill:#3e3546;fill-opacity:1;stroke:none;stroke-width:0.264583"
       id="rect7610"
       width="0.52916664"
       height="0.52916664"
       x="1.8520834"
       y="1.8520833" />
    <rect
       style="fill:#831c5d;fill-opacity:1;stroke:none;stroke-width:0.264583"
       id="rect10013"
       width="0.52916664"
       height="0.26458332"
       x="1.8520834"
       y="3.7041667" />
  </g>
</svg>
