<?xml version="1.0" encoding="UTF-8" standalone="no"?>
<!-- Created with Inkscape (http://www.inkscape.org/) -->

<svg
   xmlns:dc="http://purl.org/dc/elements/1.1/"
   xmlns:cc="http://creativecommons.org/ns#"
   xmlns:rdf="http://www.w3.org/1999/02/22-rdf-syntax-ns#"
   xmlns:svg="http://www.w3.org/2000/svg"
   xmlns="http://www.w3.org/2000/svg"
   xmlns:sodipodi="http://sodipodi.sourceforge.net/DTD/sodipodi-0.dtd"
   xmlns:inkscape="http://www.inkscape.org/namespaces/inkscape"
   width="16px"
   height="16px"
   viewBox="0 0 16 16"
   version="1.1"
   id="SVGRoot"
   inkscape:version="0.92.4 (5da689c313, 2019-01-14)"
   sodipodi:docname="distributor-logo-mx.svg">
  <defs
     id="defs10" />
  <sodipodi:namedview
     id="base"
     pagecolor="#ffffff"
     bordercolor="#666666"
     borderopacity="1.0"
     inkscape:pageopacity="0.0"
     inkscape:pageshadow="2"
     inkscape:zoom="22.627417"
     inkscape:cx="5.9000046"
     inkscape:cy="7.301867"
     inkscape:document-units="px"
     inkscape:current-layer="layer1"
     showgrid="true"
     inkscape:window-width="1280"
     inkscape:window-height="753"
     inkscape:window-x="-6"
     inkscape:window-y="-6"
     inkscape:window-maximized="1"
     inkscape:grid-bbox="true"
     showguides="false"
     inkscape:guide-bbox="true">
    <inkscape:grid
       type="xygrid"
       id="grid23" />
  </sodipodi:namedview>
  <metadata
     id="metadata13">
    <rdf:RDF>
      <cc:Work
         rdf:about="">
        <dc:format>image/svg+xml</dc:format>
        <dc:type
           rdf:resource="http://purl.org/dc/dcmitype/StillImage" />
        <dc:title></dc:title>
      </cc:Work>
    </rdf:RDF>
  </metadata>
  <g
     inkscape:label="Layer 1"
     inkscape:groupmode="layer"
     id="layer1">
    <path
       style="opacity:1;vector-effect:none;fill:#3e3546;fill-opacity:1;stroke:none;stroke-width:2;stroke-linecap:square;stroke-linejoin:miter;stroke-miterlimit:4;stroke-dasharray:none;stroke-opacity:1;paint-order:stroke fill markers"
       d="M 2,1 V 4 H 3 V 5 H 4 V 6 H 5 V 7 H 6 V 8 H 5 V 9 H 4 v 1 H 3 v 1 H 2 v 1 H 1 v 1 H 0 v 2 h 1 14 1 V 13 H 15 V 12 H 14 V 11 H 13 V 10 9 H 12 V 8 H 11 V 7 h 1 V 6 h 1 V 5 h 1 V 4 h 1 V 3 h 1 V 1 H 14 V 2 H 13 V 3 H 12 V 4 H 11 V 5 H 10 V 6 H 9 V 5 H 8 V 4 H 7 V 3 H 6 V 2 H 5 V 1 Z m 6,9 h 1 v 1 H 8 Z"
       id="rect1004"
       inkscape:connector-curvature="0" />
    <path
       style="opacity:1;vector-effect:none;fill:#ffffff;fill-opacity:1;stroke:none;stroke-width:2;stroke-linecap:square;stroke-linejoin:miter;stroke-miterlimit:4;stroke-dasharray:none;stroke-opacity:1;paint-order:stroke fill markers"
       d="m 3,2 v 2 h 1 v 1 h 1 v 1 h 1 v 1 h 1 v 1 h 1 v 1 h 1 v 1 h 1 v 1 h 2 V 9 H 11 V 8 H 10 V 7 H 9 V 6 H 8 V 5 H 7 V 4 H 6 V 3 H 5 V 2 Z m 7,5 h 1 V 6 h -1 z m 1,-1 h 1 V 5 h -1 z m 1,-1 h 1 V 4 h -1 z m 1,-1 h 1 V 3 h -1 z m 1,-1 h 1 V 2 H 14 Z M 8,9 H 7 v 1 H 8 Z M 7,10 H 6 v 1 h 1 z"
       id="rect118"
       inkscape:connector-curvature="0" />
    <path
       style="opacity:1;vector-effect:none;fill:#966c6c;fill-opacity:1;paint-order:stroke fill markers"
       d="m 5,9 v 1 H 4 v 1 H 3 v 1 H 2 v 1 H 1 v 1 h 14 v -1 h -1 v -1 h -1 v -1 h -1 v -1 h -1 v 1 h -1 v 1 H 9 8 V 11 H 7 V 10 H 6 V 9 Z"
       id="rect84"
       inkscape:connector-curvature="0" />
    <rect
       style="opacity:1;vector-effect:none;fill:#ffffff;fill-opacity:1;stroke:none;stroke-width:2;stroke-linecap:square;stroke-linejoin:miter;stroke-miterlimit:4;stroke-dasharray:none;stroke-opacity:1;paint-order:stroke fill markers"
       id="rect1033"
       width="1"
       height="1"
       x="10"
       y="10" />
    <path
       style="opacity:1;vector-effect:none;fill:#ab947a;fill-opacity:1;stroke:none;stroke-width:2;stroke-linecap:square;stroke-linejoin:miter;stroke-miterlimit:4;stroke-dasharray:none;stroke-opacity:1;paint-order:stroke fill markers"
       d="M 5 9 L 5 10 L 6 10 L 6 9 L 5 9 z M 6 10 L 6 13 L 7 13 L 8 13 L 10 13 L 10 12 L 8 12 L 8 11 L 7 11 L 7 10 L 6 10 z M 10 12 L 11 12 L 11 11 L 10 11 L 10 12 z M 11 11 L 12 11 L 12 10 L 11 10 L 11 11 z M 12 11 L 12 13 L 13 13 L 14 13 L 14 12 L 13 12 L 13 11 L 12 11 z M 5 10 L 4 10 L 4 11 L 5 11 L 5 10 z M 4 11 L 3 11 L 3 12 L 4 12 L 4 11 z M 3 12 L 2 12 L 2 13 L 3 13 L 3 12 z "
       id="rect1041" />
    <rect
       style="opacity:1;vector-effect:none;fill:#ab947a;fill-opacity:1;stroke:none;stroke-width:2;stroke-linecap:square;stroke-linejoin:miter;stroke-miterlimit:4;stroke-dasharray:none;stroke-opacity:1;paint-order:stroke fill markers"
       id="rect1051"
       width="1"
       height="1"
       x="6"
       y="10" />
    <rect
       style="opacity:1;vector-effect:none;fill:#625565;fill-opacity:1;stroke:none;stroke-width:2;stroke-linecap:square;stroke-linejoin:miter;stroke-miterlimit:4;stroke-dasharray:none;stroke-opacity:1;paint-order:stroke fill markers"
       id="rect1063"
       width="14"
       height="1"
       x="1"
       y="13" />
  </g>
</svg>
