<?xml version="1.0" encoding="UTF-8" standalone="no"?>
<!-- Created with Inkscape (http://www.inkscape.org/) -->

<svg
   xmlns:dc="http://purl.org/dc/elements/1.1/"
   xmlns:cc="http://creativecommons.org/ns#"
   xmlns:rdf="http://www.w3.org/1999/02/22-rdf-syntax-ns#"
   xmlns:svg="http://www.w3.org/2000/svg"
   xmlns="http://www.w3.org/2000/svg"
   xmlns:sodipodi="http://sodipodi.sourceforge.net/DTD/sodipodi-0.dtd"
   xmlns:inkscape="http://www.inkscape.org/namespaces/inkscape"
   width="16px"
   height="16px"
   viewBox="0 0 16 16"
   version="1.1"
   id="SVGRoot"
   inkscape:version="0.92.4 (5da689c313, 2019-01-14)"
   sodipodi:docname="firefox.svg">
  <defs
     id="defs10" />
  <sodipodi:namedview
     id="base"
     pagecolor="#ffffff"
     bordercolor="#666666"
     borderopacity="1.0"
     inkscape:pageopacity="0.0"
     inkscape:pageshadow="2"
     inkscape:zoom="22.627417"
     inkscape:cx="8.1707769"
     inkscape:cy="7.0606656"
     inkscape:document-units="px"
     inkscape:current-layer="layer1"
     showgrid="true"
     inkscape:window-width="1280"
     inkscape:window-height="753"
     inkscape:window-x="-6"
     inkscape:window-y="-6"
     inkscape:window-maximized="1"
     inkscape:grid-bbox="true">
    <inkscape:grid
       type="xygrid"
       id="grid23" />
  </sodipodi:namedview>
  <metadata
     id="metadata13">
    <rdf:RDF>
      <cc:Work
         rdf:about="">
        <dc:format>image/svg+xml</dc:format>
        <dc:type
           rdf:resource="http://purl.org/dc/dcmitype/StillImage" />
        <dc:title></dc:title>
      </cc:Work>
    </rdf:RDF>
  </metadata>
  <g
     inkscape:label="Layer 1"
     inkscape:groupmode="layer"
     id="layer1">
    <path
       style="opacity:1;vector-effect:none;fill:#3e3546;fill-opacity:1;paint-order:stroke fill markers"
       d="m 0,0 v 11 h 1 v 2 h 1 v 1 h 1 v 1 h 2 v 1 h 6 v -1 h 2 v -1 h 1 v -1 h 1 v -2 h 1 V 5 3 H 15 V 2 H 14 V 1 H 13 V 0 H 12 V 1 H 11 V 2 H 10 V 3 H 9 V 4 H 7 V 3 H 8 V 0 H 5 V 1 H 4 V 2 H 3 V 0 Z"
       id="rect18"
       inkscape:connector-curvature="0" />
    <path
       style="opacity:1;vector-effect:none;fill:#fb6b1d;fill-opacity:1;paint-order:stroke fill markers"
       d="m 1,1 v 10 h 1 v 1 1 h 1 v 1 h 2 v 1 h 6 v -1 h 2 v -1 h 1 v -2 h 1 V 3 H 14 V 2 H 13 V 1 h -1 v 1 h -1 v 1 h -1 v 2 h 1 v 1 h 1 v 4 h -1 v 1 h -1 v 1 H 6 V 11 H 5 V 10 H 4 V 6 H 5 7 8 V 5 H 7 V 4 H 6 V 3 H 7 V 1 H 5 V 2 H 4 V 3 H 2 V 1 Z"
       id="rect47"
       inkscape:connector-curvature="0"
       sodipodi:nodetypes="cccccccccccccccccccccccccccccccccccccccccccccccccccccccccc" />
    <path
       style="opacity:1;vector-effect:none;fill:#905ea9;fill-opacity:1;stroke-width:0.86602539;paint-order:stroke fill markers"
       d="M 9,5 V 6 H 8 V 7 H 5 v 3 h 1 v 1 h 4 v -1 h 1 V 7 6 H 10 V 5 Z"
       id="rect63"
       inkscape:connector-curvature="0" />
    <path
       style="opacity:1;vector-effect:none;fill:#4d9be6;fill-opacity:1;paint-order:stroke fill markers"
       d="M 6 8 L 6 9 L 5 9 L 5 10 L 6 10 L 6 11 L 10 11 L 10 10 L 11 10 L 11 9 L 10 9 L 10 8 L 6 8 z "
       id="rect91" />
    <path
       style="opacity:1;vector-effect:none;fill:#fbff86;fill-opacity:1;paint-order:stroke fill markers"
       d="M 3 4 L 3 5 L 2 5 L 2 6 L 3 6 L 3 7 L 3 8 L 4 8 L 4 7 L 5 7 L 5 6 L 8 6 L 8 5 L 5 5 L 5 4 L 3 4 z "
       id="rect96" />
    <path
       style="opacity:1;vector-effect:none;fill:#e83b3b;fill-opacity:1;paint-order:stroke fill markers"
       d="M 1 10 L 1 11 L 2 11 L 2 10 L 1 10 z M 2 12 L 2 13 L 3 13 L 3 12 L 2 12 z M 3 13 L 3 14 L 5 14 L 5 13 L 3 13 z M 5 14 L 5 15 L 11 15 L 11 14 L 5 14 z M 11 14 L 13 14 L 13 13 L 11 13 L 11 14 z M 13 13 L 14 13 L 14 12 L 13 12 L 13 13 z "
       id="rect103" />
    <path
       style="fill:#fbb954;"
       d="m 12,9 h 1 V 7 h 1 V 6 h 1 V 3 H 14 V 2 H 13 V 1 h -1 v 1 h -1 v 1 h -1 v 2 h 1 v 1 h 1 z"
       id="path116"
       inkscape:connector-curvature="0" />
    <path
       style="fill:#fbff86;"
       d="m 11,6 h 1 V 5 h 1 V 3 h 1 V 2 H 13 V 1 h -1 v 1 h -1 v 1 h -1 v 2 h 1 z"
       id="path118"
       inkscape:connector-curvature="0" />
  </g>
</svg>
