<?xml version="1.0" encoding="UTF-8" standalone="no"?>
<!-- Created with Inkscape (http://www.inkscape.org/) -->

<svg
   xmlns:dc="http://purl.org/dc/elements/1.1/"
   xmlns:cc="http://creativecommons.org/ns#"
   xmlns:rdf="http://www.w3.org/1999/02/22-rdf-syntax-ns#"
   xmlns:svg="http://www.w3.org/2000/svg"
   xmlns="http://www.w3.org/2000/svg"
   xmlns:sodipodi="http://sodipodi.sourceforge.net/DTD/sodipodi-0.dtd"
   xmlns:inkscape="http://www.inkscape.org/namespaces/inkscape"
   width="16px"
   height="16px"
   viewBox="0 0 16 16"
   version="1.1"
   id="SVGRoot"
   inkscape:version="0.92.4 (5da689c313, 2019-01-14)"
   sodipodi:docname="gimp.svg">
  <defs
     id="defs10" />
  <sodipodi:namedview
     id="base"
     pagecolor="#ffffff"
     bordercolor="#666666"
     borderopacity="1.0"
     inkscape:pageopacity="0.0"
     inkscape:pageshadow="2"
     inkscape:zoom="32"
     inkscape:cx="5.134462"
     inkscape:cy="7.7217117"
     inkscape:document-units="px"
     inkscape:current-layer="layer1"
     showgrid="true"
     inkscape:window-width="1280"
     inkscape:window-height="753"
     inkscape:window-x="-6"
     inkscape:window-y="-6"
     inkscape:window-maximized="1"
     inkscape:grid-bbox="true"
     showguides="false"
     inkscape:guide-bbox="true">
    <inkscape:grid
       type="xygrid"
       id="grid23" />
  </sodipodi:namedview>
  <metadata
     id="metadata13">
    <rdf:RDF>
      <cc:Work
         rdf:about="">
        <dc:format>image/svg+xml</dc:format>
        <dc:type
           rdf:resource="http://purl.org/dc/dcmitype/StillImage" />
        <dc:title></dc:title>
      </cc:Work>
    </rdf:RDF>
  </metadata>
  <g
     inkscape:label="Layer 1"
     inkscape:groupmode="layer"
     id="layer1">
    <path
       style="opacity:1;vector-effect:none;fill:#3e3546;fill-opacity:1;paint-order:stroke fill markers"
       d="M 14,1 V 2 H 13 V 3 H 12 V 4 H 9 V 5 H 7 V 4 H 6 V 3 H 4 V 7 H 0 v 3 h 1 v 1 h 1 v 1 h 1 v 1 h 1 v 1 h 1 v 1 h 9 v -1 h 1 v -1 h 1 V 1 Z"
       id="rect296"
       inkscape:connector-curvature="0"
       sodipodi:nodetypes="ccccccccccccccccccccccccccccccccc" />
    <path
       style="opacity:1;vector-effect:none;fill:#966c6c;fill-opacity:1;paint-order:stroke fill markers"
       d="M 14 2 L 14 3 L 13 3 L 13 4 L 12 4 L 12 5 L 11 5 L 11 6 L 7 6 L 7 5 L 6 5 L 6 4 L 5 4 L 5 9 L 3 9 L 3 10 L 2 10 L 2 11 L 3 11 L 3 12 L 4 12 L 4 13 L 5 13 L 5 14 L 6 14 L 7 14 L 14 14 L 14 13 L 15 13 L 15 12 L 15 10 L 15 2 L 14 2 z M 1 8 L 1 9 L 2 9 L 2 8 L 1 8 z "
       id="rect319" />
    <path
       style="opacity:1;vector-effect:none;fill:#625565;fill-opacity:1;paint-order:stroke fill markers"
       d="M 2 8 L 2 9 L 3 9 L 3 8 L 2 8 z M 3 9 L 3 10 L 4 10 L 4 9 L 3 9 z M 3 10 L 2 10 L 2 11 L 3 11 L 3 10 z M 3 11 L 3 12 L 4 12 L 4 11 L 3 11 z M 4 12 L 4 13 L 5 13 L 5 12 L 4 12 z M 5 13 L 5 14 L 14 14 L 14 13 L 5 13 z M 14 13 L 15 13 L 15 12 L 14 12 L 14 13 z M 2 10 L 2 9 L 1 9 L 1 10 L 2 10 z "
       id="rect344" />
    <path
       style="opacity:1;vector-effect:none;fill:#ab947a;fill-opacity:1;paint-order:stroke fill markers"
       d="M 14 2 L 14 3 L 15 3 L 15 2 L 14 2 z M 14 3 L 13 3 L 13 4 L 14 4 L 14 3 z M 13 4 L 12 4 L 12 5 L 13 5 L 13 4 z M 12 5 L 11 5 L 11 6 L 12 6 L 12 5 z M 11 6 L 7 6 L 7 7 L 11 7 L 11 6 z M 7 6 L 7 5 L 6 5 L 6 6 L 7 6 z M 6 5 L 6 4 L 5 4 L 5 5 L 6 5 z "
       id="rect353" />
    <path
       style="opacity:1;vector-effect:none;fill:#ffffff;fill-opacity:1;paint-order:stroke fill markers"
       d="M 9 5 L 9 6 L 8 6 L 8 7 L 7 7 L 7 6 L 5 6 L 5 7 L 4 7 L 4 10 L 5 10 L 5 11 L 7 11 L 8 11 L 8 10 L 9 10 L 9 11 L 12 11 L 12 10 L 13 10 L 13 9 L 14 9 L 14 7 L 13 7 L 13 6 L 12 6 L 12 5 L 9 5 z "
       id="rect382" />
    <rect
       style="opacity:1;vector-effect:none;fill:#3e3546;fill-opacity:1;paint-order:stroke fill markers"
       id="rect405"
       width="1"
       height="1"
       x="6"
       y="8" />
    <rect
       style="opacity:1;vector-effect:none;fill:#3e3546;fill-opacity:1;paint-order:stroke fill markers"
       id="rect407"
       width="2"
       height="2"
       x="9"
       y="7" />
    <path
       style="opacity:1;vector-effect:none;fill:#e3c896;fill-opacity:1;paint-order:stroke fill markers"
       d="M 7 7 L 7 9 L 8 9 L 8 7 L 7 7 z M 8 9 L 8 10 L 9 10 L 9 9 L 8 9 z M 9 10 L 9 11 L 12 11 L 12 10 L 9 10 z M 12 10 L 13 10 L 13 9 L 12 9 L 12 10 z M 8 10 L 5 10 L 5 11 L 8 11 L 8 10 z M 5 10 L 5 9 L 4 9 L 4 10 L 5 10 z "
       id="rect409" />
    <path
       style="opacity:1;vector-effect:none;fill:#625565;fill-opacity:1;paint-order:stroke fill markers"
       d="M 5 5 L 5 6 L 7 6 L 7 5 L 5 5 z M 7 6 L 7 7 L 8 7 L 8 6 L 7 6 z M 12 5 L 12 6 L 13 6 L 13 5 L 12 5 z M 13 6 L 13 7 L 14 7 L 14 6 L 13 6 z "
       id="rect422" />
  </g>
</svg>
