<?xml version="1.0" encoding="UTF-8" standalone="no"?>
<!-- Created with Inkscape (http://www.inkscape.org/) -->

<svg
   xmlns:dc="http://purl.org/dc/elements/1.1/"
   xmlns:cc="http://creativecommons.org/ns#"
   xmlns:rdf="http://www.w3.org/1999/02/22-rdf-syntax-ns#"
   xmlns:svg="http://www.w3.org/2000/svg"
   xmlns="http://www.w3.org/2000/svg"
   xmlns:sodipodi="http://sodipodi.sourceforge.net/DTD/sodipodi-0.dtd"
   xmlns:inkscape="http://www.inkscape.org/namespaces/inkscape"
   width="16px"
   height="16px"
   viewBox="0 0 16 16"
   version="1.1"
   id="SVGRoot"
   inkscape:version="0.92.4 (5da689c313, 2019-01-14)"
   sodipodi:docname="gnome-ppp.svg">
  <defs
     id="defs10">
    <inkscape:perspective
       sodipodi:type="inkscape:persp3d"
       inkscape:vp_x="0 : 8 : 1"
       inkscape:vp_y="0 : 1000 : 0"
       inkscape:vp_z="16 : 8 : 1"
       inkscape:persp3d-origin="8 : 5.3333333 : 1"
       id="perspective1239" />
  </defs>
  <sodipodi:namedview
     id="base"
     pagecolor="#ffffff"
     bordercolor="#666666"
     borderopacity="1.0"
     inkscape:pageopacity="0.0"
     inkscape:pageshadow="2"
     inkscape:zoom="22.627417"
     inkscape:cx="3.5733204"
     inkscape:cy="7.301867"
     inkscape:document-units="px"
     inkscape:current-layer="layer1"
     showgrid="true"
     inkscape:window-width="1280"
     inkscape:window-height="753"
     inkscape:window-x="-6"
     inkscape:window-y="-6"
     inkscape:window-maximized="1"
     inkscape:grid-bbox="true"
     showguides="true"
     inkscape:guide-bbox="true">
    <inkscape:grid
       type="xygrid"
       id="grid23" />
  </sodipodi:namedview>
  <metadata
     id="metadata13">
    <rdf:RDF>
      <cc:Work
         rdf:about="">
        <dc:format>image/svg+xml</dc:format>
        <dc:type
           rdf:resource="http://purl.org/dc/dcmitype/StillImage" />
        <dc:title></dc:title>
      </cc:Work>
    </rdf:RDF>
  </metadata>
  <g
     inkscape:label="Layer 1"
     inkscape:groupmode="layer"
     id="layer1">
    <path
       style="opacity:1;vector-effect:none;fill:#3e3546;fill-opacity:1;stroke-width:1.41421354;paint-order:stroke fill markers"
       d="M 3,1 V 2 H 1 V 3 H 0 V 6 H 1 V 7 H 3 V 6 h 10 v 1 h 2 V 6 h 1 V 3 H 15 V 2 H 13 V 1 Z"
       id="rect1235"
       inkscape:connector-curvature="0"
       sodipodi:nodetypes="ccccccccccccccccccccc" />
    <path
       style="opacity:1;vector-effect:none;fill:#f04f78;fill-opacity:1;paint-order:stroke fill markers"
       d="M 3,2 V 3 H 1 V 6 H 3 V 5 h 10 v 1 h 2 V 3 H 13 V 2 Z"
       id="rect1219"
       inkscape:connector-curvature="0" />
    <path
       style="opacity:1;vector-effect:none;fill:#3e3546;fill-opacity:1;paint-order:stroke fill markers"
       d="M 4 4 L 4 6 L 3 6 L 3 7 L 2 7 L 2 8 L 1 8 L 1 10 L 0 10 L 0 13 L 1 13 L 1 14 L 2 14 L 2 15 L 3 15 L 13 15 L 14 15 L 14 14 L 15 14 L 15 13 L 16 13 L 16 10 L 15 10 L 15 8 L 14 8 L 14 7 L 13 7 L 13 6 L 12 6 L 12 4 L 9 4 L 9 5 L 7 5 L 7 4 L 4 4 z "
       id="rect1167" />
    <path
       style="opacity:1;vector-effect:none;fill:#f04f78;fill-opacity:1;paint-order:stroke fill markers"
       d="M 5,5 V 7 H 3 V 8 H 2 v 2 H 1 v 3 h 1 v 1 h 12 v -1 h 1 V 10 H 14 V 8 H 13 V 7 H 11 V 5 H 10 V 7 H 9 V 6 H 7 V 7 H 6 V 5 Z"
       id="rect1195"
       inkscape:connector-curvature="0" />
    <path
       style="opacity:1;vector-effect:none;fill:#ffffff;fill-opacity:1;stroke-width:1.41421366;paint-order:stroke fill markers"
       d="M 6 8 L 6 9 L 5 9 L 5 12 L 6 12 L 6 13 L 10 13 L 10 12 L 11 12 L 11 9 L 10 9 L 10 8 L 6 8 z "
       id="rect1255" />
    <rect
       style="opacity:1;vector-effect:none;fill:#c32454;fill-opacity:1;paint-order:stroke fill markers"
       id="rect1259"
       width="4"
       height="3"
       x="6"
       y="9" />
    <path
       style="opacity:1;vector-effect:none;fill:#c32454;fill-opacity:1;paint-order:stroke fill markers"
       d="M 3 4 L 3 5 L 4 5 L 4 4 L 3 4 z M 3 5 L 1 5 L 1 6 L 3 6 L 3 5 z M 7 4 L 7 5 L 9 5 L 9 4 L 7 4 z M 12 4 L 12 5 L 13 5 L 13 4 L 12 4 z M 13 5 L 13 6 L 15 6 L 15 5 L 13 5 z M 7 6 L 7 7 L 9 7 L 9 6 L 7 6 z M 1 12 L 1 13 L 2 13 L 2 12 L 1 12 z M 2 13 L 2 14 L 14 14 L 14 13 L 2 13 z M 14 13 L 15 13 L 15 12 L 14 12 L 14 13 z "
       id="rect1265" />
    <path
       style="opacity:1;vector-effect:none;fill:#f68181;fill-opacity:1;paint-order:stroke fill markers"
       d="M 3 2 L 3 3 L 13 3 L 13 2 L 3 2 z M 13 3 L 13 4 L 15 4 L 15 3 L 13 3 z M 3 3 L 1 3 L 1 4 L 3 4 L 3 3 z M 5 5 L 5 6 L 6 6 L 6 5 L 5 5 z M 10 5 L 10 6 L 11 6 L 11 5 L 10 5 z M 3 7 L 3 8 L 5 8 L 5 7 L 3 7 z M 3 8 L 2 8 L 2 9 L 3 9 L 3 8 z M 11 7 L 11 8 L 13 8 L 13 7 L 11 7 z M 13 8 L 13 9 L 14 9 L 14 8 L 13 8 z "
       id="rect1267" />
  </g>
</svg>
