<?xml version="1.0" encoding="UTF-8" standalone="no"?>
<!-- Created with Inkscape (http://www.inkscape.org/) -->

<svg
   xmlns:dc="http://purl.org/dc/elements/1.1/"
   xmlns:cc="http://creativecommons.org/ns#"
   xmlns:rdf="http://www.w3.org/1999/02/22-rdf-syntax-ns#"
   xmlns:svg="http://www.w3.org/2000/svg"
   xmlns="http://www.w3.org/2000/svg"
   xmlns:sodipodi="http://sodipodi.sourceforge.net/DTD/sodipodi-0.dtd"
   xmlns:inkscape="http://www.inkscape.org/namespaces/inkscape"
   width="16px"
   height="16px"
   viewBox="0 0 16 16"
   version="1.1"
   id="SVGRoot"
   inkscape:version="0.92.4 (5da689c313, 2019-01-14)"
   sodipodi:docname="google-chrome.svg">
  <defs
     id="defs10" />
  <sodipodi:namedview
     id="base"
     pagecolor="#ffffff"
     bordercolor="#666666"
     borderopacity="1.0"
     inkscape:pageopacity="0.0"
     inkscape:pageshadow="2"
     inkscape:zoom="22.627417"
     inkscape:cx="7.375"
     inkscape:cy="5.7090647"
     inkscape:document-units="px"
     inkscape:current-layer="layer1"
     showgrid="true"
     inkscape:window-width="1280"
     inkscape:window-height="753"
     inkscape:window-x="-6"
     inkscape:window-y="-6"
     inkscape:window-maximized="1"
     inkscape:grid-bbox="true"
     showguides="true"
     inkscape:guide-bbox="true">
    <inkscape:grid
       type="xygrid"
       id="grid23" />
  </sodipodi:namedview>
  <metadata
     id="metadata13">
    <rdf:RDF>
      <cc:Work
         rdf:about="">
        <dc:format>image/svg+xml</dc:format>
        <dc:type
           rdf:resource="http://purl.org/dc/dcmitype/StillImage" />
        <dc:title></dc:title>
      </cc:Work>
    </rdf:RDF>
  </metadata>
  <g
     inkscape:label="Layer 1"
     inkscape:groupmode="layer"
     id="layer1">
    <path
       inkscape:connector-curvature="0"
       style="opacity:1;vector-effect:none;fill:#3e3546;fill-opacity:1;paint-order:stroke fill markers"
       d="M 5,0 V 1 H 3 V 2 H 2 V 3 H 1 V 5 H 0 v 6 h 1 v 2 h 1 v 1 h 1 v 1 h 2 v 1 h 6 v -1 h 2 v -1 h 1 v -1 h 1 v -2 h 1 V 5 H 15 V 3 H 14 V 2 H 13 V 1 H 11 V 0 Z"
       id="rect289" />
    <path
       inkscape:connector-curvature="0"
       style="opacity:1;vector-effect:none;fill:#fbb954;fill-opacity:1;paint-order:stroke fill markers"
       d="M 5,1 V 2 H 3 V 3 H 2 V 5 H 1 v 2 4 h 1 v 2 h 1 v 1 h 2 v 1 h 6 v -1 h 2 v -1 h 1 v -2 h 1 V 7 5 H 14 V 3 H 13 V 2 H 11 V 1 Z"
       id="rect300" />
    <path
       style="fill:#c32454"
       d="M 3,5 V 2 H 5 V 1 h 6 v 1 h 2 v 1 h 1 v 1 1 h 1 V 6 H 9 V 5 H 7 V 6 H 6 V 7 H 4 V 5 Z"
       id="path126"
       inkscape:connector-curvature="0" />
    <path
       inkscape:connector-curvature="0"
       style="opacity:1;vector-effect:none;fill:#cd683d;fill-opacity:1;paint-order:stroke fill markers"
       d="m 2,12 v 1 h 1 v -1 z m 1,1 v 1 h 2 v -1 z m 2,1 v 1 h 6 v -1 z m 6,0 h 2 v -1 h -2 z m 2,-1 h 1 v -1 h -1 z"
       id="rect460" />
    <path
       inkscape:connector-curvature="0"
       style="opacity:1;vector-effect:none;fill:#e83b3b;fill-opacity:1;paint-order:stroke fill markers"
       d="m 5,1 v 1 h 6 V 1 Z m 6,1 v 1 h 2 V 2 Z m 2,1 v 1 h 1 V 3 Z M 5,2 H 3 V 3 H 5 Z M 3,3 H 2 v 1 h 1 z"
       id="rect470" />
    <rect
       style="opacity:1;vector-effect:none;fill:#ffffff;fill-opacity:1;paint-order:stroke fill markers"
       id="rect106"
       width="2"
       height="6"
       x="7"
       y="5" />
    <path
       style="fill:#1ebc73"
       d="m 2,3 h 1 v 2 h 1 v 2 h 1 v 2 h 1 v 1 h 1 v 1 h 2 v 2 H 8 v 2 H 5 V 14 H 3 V 13 H 2 V 11 H 1 V 5 h 1 z"
       id="path128"
       inkscape:connector-curvature="0" />
    <rect
       style="opacity:1;vector-effect:none;fill:#ffffff;fill-opacity:1;paint-order:stroke fill markers"
       id="rect108"
       width="6"
       height="2"
       x="5"
       y="7" />
    <rect
       style="opacity:1;vector-effect:none;fill:#ffffff;fill-opacity:1;paint-order:stroke fill markers"
       id="rect110"
       width="4"
       height="4"
       x="6"
       y="6" />
    <rect
       style="opacity:1;vector-effect:none;fill:#91db69;fill-opacity:1;paint-order:stroke fill markers"
       id="rect130"
       width="1"
       height="1"
       x="2"
       y="3" />
    <rect
       style="opacity:1;vector-effect:none;fill:#0b8a8f;fill-opacity:1;paint-order:stroke fill markers"
       id="rect132"
       width="3"
       height="1"
       x="5"
       y="14" />
    <rect
       style="opacity:1;vector-effect:none;fill:#0b8a8f;fill-opacity:1;paint-order:stroke fill markers"
       id="rect134"
       width="2"
       height="1"
       x="3"
       y="13" />
    <rect
       style="opacity:1;vector-effect:none;fill:#0b8a8f;fill-opacity:1;paint-order:stroke fill markers"
       id="rect136"
       width="1"
       height="1"
       x="2"
       y="12" />
    <path
       style="opacity:1;vector-effect:none;fill:#4d9be6;fill-opacity:1;paint-order:stroke fill markers"
       d="M 7 6 L 7 7 L 6 7 L 6 9 L 7 9 L 7 10 L 9 10 L 9 9 L 10 9 L 10 7 L 9 7 L 9 6 L 7 6 z "
       id="rect152" />
  </g>
</svg>
