<?xml version="1.0" encoding="UTF-8" standalone="no"?>
<!-- Created with Inkscape (http://www.inkscape.org/) -->

<svg
   width="16px"
   height="16px"
   viewBox="0 0 16 16"
   version="1.1"
   id="SVGRoot"
   inkscape:version="1.1 (c4e8f9ed74, 2021-05-24)"
   sodipodi:docname="gparted.svg"
   xmlns:inkscape="http://www.inkscape.org/namespaces/inkscape"
   xmlns:sodipodi="http://sodipodi.sourceforge.net/DTD/sodipodi-0.dtd"
   xmlns="http://www.w3.org/2000/svg"
   xmlns:svg="http://www.w3.org/2000/svg"
   xmlns:rdf="http://www.w3.org/1999/02/22-rdf-syntax-ns#"
   xmlns:cc="http://creativecommons.org/ns#"
   xmlns:dc="http://purl.org/dc/elements/1.1/">
  <defs
     id="defs10" />
  <sodipodi:namedview
     id="base"
     pagecolor="#ffffff"
     bordercolor="#666666"
     borderopacity="1.0"
     inkscape:pageopacity="0.0"
     inkscape:pageshadow="2"
     inkscape:zoom="22.627417"
     inkscape:cx="7.3583299"
     inkscape:cy="9.0819027"
     inkscape:document-units="px"
     inkscape:current-layer="layer1"
     showgrid="true"
     inkscape:window-width="1440"
     inkscape:window-height="831"
     inkscape:window-x="1280"
     inkscape:window-y="32"
     inkscape:window-maximized="1"
     inkscape:grid-bbox="true"
     showguides="true"
     inkscape:guide-bbox="true"
     inkscape:pagecheckerboard="0">
    <inkscape:grid
       type="xygrid"
       id="grid23" />
  </sodipodi:namedview>
  <metadata
     id="metadata13">
    <rdf:RDF>
      <cc:Work
         rdf:about="">
        <dc:format>image/svg+xml</dc:format>
        <dc:type
           rdf:resource="http://purl.org/dc/dcmitype/StillImage" />
      </cc:Work>
    </rdf:RDF>
  </metadata>
  <g
     inkscape:label="Layer 1"
     inkscape:groupmode="layer"
     id="layer1">
    <path
       style="fill:#3e3546;fill-opacity:1;stroke:none;stroke-width:0.999999px;stroke-linecap:butt;stroke-linejoin:miter;stroke-opacity:1"
       d="m 5,0 h 6 v 1 h 2 v 1 h 1 v 1 h 1.000001 V 4.9999998 H 16 V 11 h -0.999999 v 2 H 14 v 1 h -1 v 1 h -2 v 1 H 5 V 15 H 3 V 14 H 2 V 13 H 1 V 11 H 0 V 4.9999998 H 1 V 3 H 2 V 2 H 3 V 1 h 2 z"
       id="path13035" />
    <path
       style="fill:#4d65b4;fill-opacity:1;stroke:none;stroke-width:0.999999px;stroke-linecap:butt;stroke-linejoin:miter;stroke-opacity:1"
       d="m 7,10 v 5 H 5 V 14 H 2.9999999 V 13 H 2 V 11 H 0.9999998 V 9.9999998"
       id="path19626"
       sodipodi:nodetypes="cccccccccc" />
    <path
       style="fill:#91db69;fill-opacity:1;stroke:none;stroke-width:1px;stroke-linecap:butt;stroke-linejoin:miter;stroke-opacity:1"
       d="m 3,3 h 7 v 3 h 5 V 5 H 14 V 3 H 13 V 2 H 11 V 1 H 5 V 2 H 3 Z"
       id="path21844" />
    <path
       style="fill:#1ebc73;fill-opacity:1;stroke:none;stroke-width:0.1;stroke-linecap:butt;stroke-linejoin:miter;stroke-miterlimit:4;stroke-dasharray:none;stroke-opacity:1"
       d="m 14,12 -10e-7,-2.0000001 h 1.000003 V 6 H 13.999999 V 3.9999998 H 13 V 3 H 11 V 2 H 5 V 3 H 4 V 4 H 5 V 5 H 6 V 6 H 7 V 5 h 2 v 1 h 1 v 1 h 1 v 2 h -1 v 1 h 1 v 1 h 1 v 1 z"
       id="path276"
       sodipodi:nodetypes="ccccccccccccccccccccccccccccccccc" />
    <path
       style="fill:#ffffff;fill-opacity:1;stroke:none;stroke-width:1px;stroke-linecap:butt;stroke-linejoin:miter;stroke-opacity:1"
       d="m 7,6 h 2 v 1 h 1 V 9 H 9 v 1 H 7 V 9 H 6 V 7 h 1 z"
       id="path22617" />
    <path
       style="fill:#cd683d;fill-opacity:1;stroke:none;stroke-width:1px;stroke-linecap:butt;stroke-linejoin:miter;stroke-opacity:1"
       d="M 2,4 H 4 V 5 H 5 V 6 H 6 V 7 H 5 V 8 H 1 V 6 h 1 z"
       id="path27880" />
    <rect
       style="fill:#fbb954;fill-opacity:1;stroke:none;stroke-width:0.1;stroke-miterlimit:4;stroke-dasharray:none;stroke-opacity:1"
       id="rect29738"
       width="1"
       height="1"
       x="2"
       y="3" />
    <rect
       style="fill:#fbb954;fill-opacity:1;stroke:none;stroke-width:0.1;stroke-miterlimit:4;stroke-dasharray:none;stroke-opacity:1"
       id="rect31868"
       width="1"
       height="1"
       x="1"
       y="5" />
    <path
       style="fill:#831c5d;fill-opacity:1;stroke:none;stroke-width:1px;stroke-linecap:butt;stroke-linejoin:miter;stroke-opacity:1"
       d="M 13,13 H 8 v 2 h 3 v -1 h 2 z"
       id="path33298" />
    <path
       style="fill:#4d9be6;fill-opacity:1;stroke:none;stroke-width:1px;stroke-linecap:butt;stroke-linejoin:miter;stroke-opacity:1"
       d="m 1,9 h 5 v 1 h 1 c 0,0 0,4 0,4 H 5 V 13 H 3 V 12 H 2 V 10 H 1 Z"
       id="path35860" />
    <path
       style="fill:#c32454;fill-opacity:1;stroke:none;stroke-width:1px;stroke-linecap:butt;stroke-linejoin:miter;stroke-opacity:1"
       d="m 8,14 v -3 h 1 v -1 h 1 v 1 h 1 v 1 h 1 v 1 h -1 v 1 z"
       id="path38071" />
    <rect
       style="fill:#0b8a8f;fill-opacity:1;stroke:none;stroke-width:0.1;stroke-miterlimit:4;stroke-dasharray:none;stroke-opacity:1"
       id="rect40376"
       width="1"
       height="1"
       x="13"
       y="12" />
    <rect
       style="fill:#0b8a8f;fill-opacity:1;stroke:none;stroke-width:0.1;stroke-miterlimit:4;stroke-dasharray:none;stroke-opacity:1"
       id="rect43130"
       width="1"
       height="1"
       x="14"
       y="10" />
  </g>
</svg>
