<?xml version="1.0" encoding="UTF-8" standalone="no"?>
<!-- Created with Inkscape (http://www.inkscape.org/) -->

<svg
   xmlns:dc="http://purl.org/dc/elements/1.1/"
   xmlns:cc="http://creativecommons.org/ns#"
   xmlns:rdf="http://www.w3.org/1999/02/22-rdf-syntax-ns#"
   xmlns:svg="http://www.w3.org/2000/svg"
   xmlns="http://www.w3.org/2000/svg"
   xmlns:sodipodi="http://sodipodi.sourceforge.net/DTD/sodipodi-0.dtd"
   xmlns:inkscape="http://www.inkscape.org/namespaces/inkscape"
   width="16px"
   height="16px"
   viewBox="0 0 16 16"
   version="1.1"
   id="SVGRoot"
   inkscape:version="0.92.4 (5da689c313, 2019-01-14)"
   sodipodi:docname="half-life.svg">
  <defs
     id="defs10" />
  <sodipodi:namedview
     id="base"
     pagecolor="#ffffff"
     bordercolor="#666666"
     borderopacity="1.0"
     inkscape:pageopacity="0.0"
     inkscape:pageshadow="2"
     inkscape:zoom="22.627417"
     inkscape:cx="13.169827"
     inkscape:cy="7.40625"
     inkscape:document-units="px"
     inkscape:current-layer="layer1"
     showgrid="true"
     inkscape:window-width="1280"
     inkscape:window-height="753"
     inkscape:window-x="-6"
     inkscape:window-y="-6"
     inkscape:window-maximized="1"
     inkscape:grid-bbox="true">
    <inkscape:grid
       type="xygrid"
       id="grid23" />
  </sodipodi:namedview>
  <metadata
     id="metadata13">
    <rdf:RDF>
      <cc:Work
         rdf:about="">
        <dc:format>image/svg+xml</dc:format>
        <dc:type
           rdf:resource="http://purl.org/dc/dcmitype/StillImage" />
        <dc:title></dc:title>
      </cc:Work>
    </rdf:RDF>
  </metadata>
  <g
     inkscape:label="Layer 1"
     inkscape:groupmode="layer"
     id="layer1">
    <path
       inkscape:connector-curvature="0"
       style="opacity:1;vector-effect:none;fill:#3e3546;fill-opacity:1;paint-order:stroke fill markers"
       d="M 5,0 V 1 H 3 V 2 H 2 V 3 H 1 V 5 H 0 v 6 h 1 v 2 h 1 v 1 h 1 v 1 h 2 v 1 h 6 v -1 h 2 v -1 h 1 v -1 h 1 v -2 h 1 V 5 H 15 V 3 H 14 V 2 H 13 V 1 H 11 V 0 Z"
       id="rect289" />
    <path
       style="opacity:1;vector-effect:none;fill:#e83b3b;fill-opacity:1;paint-order:stroke fill markers"
       d="M 5 1 L 5 2 L 11 2 L 11 1 L 5 1 z M 11 2 L 11 3 L 13 3 L 13 2 L 11 2 z M 13 3 L 13 5 L 14 5 L 14 3 L 13 3 z M 14 5 L 14 11 L 15 11 L 15 5 L 14 5 z M 14 11 L 13 11 L 13 13 L 14 13 L 14 11 z M 13 13 L 11 13 L 11 14 L 13 14 L 13 13 z M 11 14 L 5 14 L 5 15 L 11 15 L 11 14 z M 5 14 L 5 13 L 3 13 L 3 14 L 5 14 z M 3 13 L 3 11 L 2 11 L 2 13 L 3 13 z M 2 11 L 2 5 L 1 5 L 1 11 L 2 11 z M 2 5 L 3 5 L 3 3 L 2 3 L 2 5 z M 3 3 L 5 3 L 5 2 L 3 2 L 3 3 z "
       id="rect300" />
    <path
       inkscape:connector-curvature="0"
       style="opacity:1;vector-effect:none;fill:#831c5d;fill-opacity:1;paint-order:stroke fill markers"
       d="m 2,12 v 1 h 1 v -1 z m 1,1 v 1 h 2 v -1 z m 2,1 v 1 h 6 v -1 z m 6,0 h 2 v -1 h -2 z m 2,-1 h 1 v -1 h -1 z"
       id="rect460" />
    <path
       inkscape:connector-curvature="0"
       style="opacity:1;vector-effect:none;fill:#fb6b1d;fill-opacity:1;paint-order:stroke fill markers"
       d="m 5,1 v 1 h 6 V 1 Z m 6,1 v 1 h 2 V 2 Z m 2,1 v 1 h 1 V 3 Z M 5,2 H 3 V 3 H 5 Z M 3,3 H 2 v 1 h 1 z"
       id="rect470" />
    <path
       style="opacity:1;vector-effect:none;fill:#e83b3b;fill-opacity:1;paint-order:stroke fill markers"
       d="M 5 4 L 5 6 L 7 6 L 7 7 L 6 7 L 6 9 L 5 9 L 5 11 L 4 11 L 4 12 L 7 12 L 7 11 L 7 9 L 8 9 L 8 10 L 9 10 L 9 12 L 11 12 L 11 11 L 12 11 L 12 10 L 13 10 L 13 8 L 11 8 L 11 9 L 10 9 L 10 7 L 9 7 L 9 5 L 8 5 L 8 4 L 5 4 z "
       id="rect1025" />
  </g>
</svg>
