<?xml version="1.0" encoding="UTF-8" standalone="no"?>
<!-- Created with Inkscape (http://www.inkscape.org/) -->

<svg
   width="16px"
   height="16px"
   viewBox="0 0 16 16"
   version="1.1"
   id="SVGRoot"
   inkscape:version="1.1 (c4e8f9ed74, 2021-05-24)"
   sodipodi:docname="maps.svg"
   xmlns:inkscape="http://www.inkscape.org/namespaces/inkscape"
   xmlns:sodipodi="http://sodipodi.sourceforge.net/DTD/sodipodi-0.dtd"
   xmlns="http://www.w3.org/2000/svg"
   xmlns:svg="http://www.w3.org/2000/svg"
   xmlns:rdf="http://www.w3.org/1999/02/22-rdf-syntax-ns#"
   xmlns:cc="http://creativecommons.org/ns#"
   xmlns:dc="http://purl.org/dc/elements/1.1/">
  <defs
     id="defs10" />
  <sodipodi:namedview
     id="base"
     pagecolor="#ffffff"
     bordercolor="#666666"
     borderopacity="1.0"
     inkscape:pageopacity="0.0"
     inkscape:pageshadow="2"
     inkscape:zoom="16"
     inkscape:cx="4.34375"
     inkscape:cy="10.71875"
     inkscape:document-units="px"
     inkscape:current-layer="layer1"
     showgrid="true"
     inkscape:window-width="1440"
     inkscape:window-height="831"
     inkscape:window-x="1280"
     inkscape:window-y="32"
     inkscape:window-maximized="1"
     inkscape:grid-bbox="true"
     showguides="true"
     inkscape:guide-bbox="true"
     inkscape:pagecheckerboard="0">
    <inkscape:grid
       type="xygrid"
       id="grid23" />
  </sodipodi:namedview>
  <metadata
     id="metadata13">
    <rdf:RDF>
      <cc:Work
         rdf:about="">
        <dc:format>image/svg+xml</dc:format>
        <dc:type
           rdf:resource="http://purl.org/dc/dcmitype/StillImage" />
      </cc:Work>
    </rdf:RDF>
  </metadata>
  <g
     inkscape:label="Layer 1"
     inkscape:groupmode="layer"
     id="layer1">
    <path
       style="fill:#3e3546;fill-opacity:1;stroke:none;stroke-width:1px;stroke-linecap:butt;stroke-linejoin:miter;stroke-opacity:1"
       d="m 15,0 v 1 h 1 v 4 h -1 v 10 h -1 v 1 H 1 V 15 H 0 V 2 H 1 V 1 h 9 V 0 Z"
       id="path43551" />
    <path
       style="fill:#c32454;fill-opacity:1;stroke:none;stroke-width:1px;stroke-linecap:butt;stroke-linejoin:miter;stroke-opacity:1"
       d="m 10,1 h 5 V 5 H 14 V 7 H 13 V 9 H 12 V 7 H 11 V 5 h -1 z"
       id="path46532" />
    <path
       style="fill:#ffffff;fill-opacity:1;stroke:none;stroke-width:1px;stroke-linecap:butt;stroke-linejoin:miter;stroke-opacity:1"
       d="m 12,2 h 1 v 1 h 1 V 4 H 13 V 5 H 12 V 4 H 11 V 3 h 1 z"
       id="path51289" />
    <rect
       style="fill:#8ff8e2;fill-opacity:1;stroke:none;stroke-width:0.1;stroke-miterlimit:4;stroke-dasharray:none;stroke-opacity:1"
       id="rect52020"
       width="8"
       height="1"
       x="1"
       y="2" />
    <rect
       style="fill:#484a77;fill-opacity:1;stroke:none;stroke-width:0.1;stroke-miterlimit:4;stroke-dasharray:none;stroke-opacity:1"
       id="rect55656"
       width="9"
       height="1"
       x="3"
       y="14" />
    <rect
       style="fill:#ab947a;fill-opacity:1;stroke:none;stroke-width:0.1;stroke-miterlimit:4;stroke-dasharray:none;stroke-opacity:1"
       id="rect58215"
       width="2"
       height="1"
       x="1"
       y="14" />
    <rect
       style="fill:#cd683d;fill-opacity:1;stroke:none;stroke-width:0.1;stroke-miterlimit:4;stroke-dasharray:none;stroke-opacity:1"
       id="rect60345"
       width="2"
       height="1"
       x="12"
       y="14" />
    <path
       style="fill:#8fd3ff;fill-opacity:1;stroke:none;stroke-width:1px;stroke-linecap:butt;stroke-linejoin:miter;stroke-opacity:1"
       d="M 1,3 H 9 V 7 L 1,14 Z"
       id="path62239"
       sodipodi:nodetypes="ccccc" />
    <path
       style="fill:#1ebc73;fill-opacity:1;stroke:none;stroke-width:1px;stroke-linecap:butt;stroke-linejoin:miter;stroke-opacity:1"
       d="m 9,8 h 1 V 7 h 1 v 2 h 1 v 2 h 1 V 9 h 1 v 5 H 9 Z"
       id="path69557" />
    <path
       style="fill:#4d65b4;fill-opacity:1;stroke:none;stroke-width:1px;stroke-linecap:butt;stroke-linejoin:miter;stroke-opacity:1"
       d="m 3,14 5,-6 5,6 z"
       id="path66812" />
    <path
       style="fill:#ffffff;fill-opacity:1;stroke:none;stroke-width:1px;stroke-linecap:butt;stroke-linejoin:miter;stroke-opacity:1"
       d="M 1,14 V 13 H 2 V 12 H 3 V 11 H 4 V 10 H 5 V 9 H 6 V 8 H 7 V 7 H 8 V 6 H 9 V 5 h 1 V 8 H 9 V 9 H 8 v 1 H 7 v 1 H 6 v 1 H 5 v 1 H 4 v 1 z"
       id="path63816" />
    <path
       style="fill:#fbb954;fill-opacity:1;stroke:none;stroke-width:1px;stroke-linecap:butt;stroke-linejoin:miter;stroke-opacity:1"
       d="M 14,14 V 13 H 13 V 12 H 12 V 11 H 11 V 10 H 10 V 9 H 8 v 2 h 1 v 1 h 1 v 1 h 1 v 1 z"
       id="path71526" />
  </g>
</svg>
