<?xml version="1.0" encoding="UTF-8" standalone="no"?>
<!-- Created with Inkscape (http://www.inkscape.org/) -->

<svg
   xmlns:dc="http://purl.org/dc/elements/1.1/"
   xmlns:cc="http://creativecommons.org/ns#"
   xmlns:rdf="http://www.w3.org/1999/02/22-rdf-syntax-ns#"
   xmlns:svg="http://www.w3.org/2000/svg"
   xmlns="http://www.w3.org/2000/svg"
   xmlns:sodipodi="http://sodipodi.sourceforge.net/DTD/sodipodi-0.dtd"
   xmlns:inkscape="http://www.inkscape.org/namespaces/inkscape"
   width="16px"
   height="16px"
   viewBox="0 0 16 16"
   version="1.1"
   id="SVGRoot"
   inkscape:version="0.92.4 (5da689c313, 2019-01-14)"
   sodipodi:docname="multimedia-audio-player.svg">
  <defs
     id="defs10" />
  <sodipodi:namedview
     id="base"
     pagecolor="#ffffff"
     bordercolor="#666666"
     borderopacity="1.0"
     inkscape:pageopacity="0.0"
     inkscape:pageshadow="2"
     inkscape:zoom="22.627417"
     inkscape:cx="11.439462"
     inkscape:cy="7.0606656"
     inkscape:document-units="px"
     inkscape:current-layer="layer1"
     showgrid="true"
     inkscape:window-width="1280"
     inkscape:window-height="753"
     inkscape:window-x="-6"
     inkscape:window-y="-6"
     inkscape:window-maximized="1"
     inkscape:grid-bbox="true"
     showguides="false">
    <inkscape:grid
       type="xygrid"
       id="grid23" />
  </sodipodi:namedview>
  <metadata
     id="metadata13">
    <rdf:RDF>
      <cc:Work
         rdf:about="">
        <dc:format>image/svg+xml</dc:format>
        <dc:type
           rdf:resource="http://purl.org/dc/dcmitype/StillImage" />
        <dc:title></dc:title>
      </cc:Work>
    </rdf:RDF>
  </metadata>
  <g
     inkscape:label="Layer 1"
     inkscape:groupmode="layer"
     id="layer1">
    <path
       style="opacity:1;vector-effect:none;fill:#3e3546;fill-opacity:1;paint-order:stroke fill markers"
       d="M 3 0 L 3 5 L 3 9 L 2 9 L 2 10 L 1 10 L 1 11 L 0 11 L 0 14 L 1 14 L 1 15 L 2 15 L 2 16 L 5 16 L 5 15 L 6 15 L 6 14 L 7 14 L 7 11 L 7 5 L 11 5 L 11 9 L 10 9 L 10 10 L 9 10 L 9 11 L 8 11 L 8 14 L 9 14 L 9 15 L 10 15 L 10 16 L 13 16 L 13 15 L 14 15 L 14 14 L 15 14 L 15 5 L 15 0 L 3 0 z "
       id="rect449" />
    <path
       style="opacity:1;vector-effect:none;fill:#91db69;fill-opacity:1;paint-order:stroke fill markers"
       d="m 4,1 v 1 2 6 H 2 v 1 H 1 v 3 h 1 v 1 H 5 V 14 H 6 V 11 4 h 6 v 6 h -2 v 1 H 9 v 3 h 1 v 1 h 3 v -1 h 1 V 11 4 1 Z"
       id="rect407"
       inkscape:connector-curvature="0" />
    <path
       style="opacity:1;vector-effect:none;fill:#fbff86;fill-opacity:1;paint-order:stroke fill markers"
       d="M 4 1 L 4 2 L 14 2 L 14 1 L 4 1 z M 2 11 L 2 13 L 4 13 L 4 11 L 2 11 z M 10 11 L 10 13 L 12 13 L 12 11 L 10 11 z "
       id="rect453" />
    <path
       style="opacity:1;vector-effect:none;fill:#1ebc73;fill-opacity:1;paint-order:stroke fill markers"
       d="M 6 3 L 6 4 L 12 4 L 12 3 L 6 3 z M 1 13 L 1 14 L 2 14 L 2 13 L 1 13 z M 2 14 L 2 15 L 5 15 L 5 14 L 2 14 z M 5 14 L 6 14 L 6 13 L 5 13 L 5 14 z M 9 13 L 9 14 L 10 14 L 10 13 L 9 13 z M 10 14 L 10 15 L 13 15 L 13 14 L 10 14 z M 13 14 L 14 14 L 14 13 L 13 13 L 13 14 z "
       id="rect457" />
  </g>
</svg>
