<?xml version="1.0" encoding="UTF-8" standalone="no"?>
<!-- Created with Inkscape (http://www.inkscape.org/) -->

<svg
   xmlns:dc="http://purl.org/dc/elements/1.1/"
   xmlns:cc="http://creativecommons.org/ns#"
   xmlns:rdf="http://www.w3.org/1999/02/22-rdf-syntax-ns#"
   xmlns:svg="http://www.w3.org/2000/svg"
   xmlns="http://www.w3.org/2000/svg"
   xmlns:sodipodi="http://sodipodi.sourceforge.net/DTD/sodipodi-0.dtd"
   xmlns:inkscape="http://www.inkscape.org/namespaces/inkscape"
   width="16px"
   height="16px"
   viewBox="0 0 16 16"
   version="1.1"
   id="SVGRoot"
   inkscape:version="0.92.4 (5da689c313, 2019-01-14)"
   sodipodi:docname="mx-tools.svg">
  <defs
     id="defs10" />
  <sodipodi:namedview
     id="base"
     pagecolor="#ffffff"
     bordercolor="#666666"
     borderopacity="1.0"
     inkscape:pageopacity="0.0"
     inkscape:pageshadow="2"
     inkscape:zoom="22.627417"
     inkscape:cx="5.9000046"
     inkscape:cy="7.301867"
     inkscape:document-units="px"
     inkscape:current-layer="layer1"
     showgrid="true"
     inkscape:window-width="1280"
     inkscape:window-height="753"
     inkscape:window-x="-6"
     inkscape:window-y="-6"
     inkscape:window-maximized="1"
     inkscape:grid-bbox="true"
     showguides="true"
     inkscape:guide-bbox="true">
    <inkscape:grid
       type="xygrid"
       id="grid23" />
  </sodipodi:namedview>
  <metadata
     id="metadata13">
    <rdf:RDF>
      <cc:Work
         rdf:about="">
        <dc:format>image/svg+xml</dc:format>
        <dc:type
           rdf:resource="http://purl.org/dc/dcmitype/StillImage" />
        <dc:title></dc:title>
      </cc:Work>
    </rdf:RDF>
  </metadata>
  <g
     inkscape:label="Layer 1"
     inkscape:groupmode="layer"
     id="layer1">
    <path
       style="opacity:1;vector-effect:none;fill:#3e3546;fill-opacity:1;stroke:none;stroke-width:1.95959175;stroke-linecap:square;stroke-linejoin:miter;stroke-miterlimit:4;stroke-dasharray:none;stroke-opacity:1;paint-order:stroke fill markers"
       d="M 3 0 L 3 1 L 3 2 L 4 2 L 4 3 L 3 3 L 3 2 L 2 2 L 1 2 L 1 5 L 2 5 L 2 6 L 4 6 L 5 6 L 5 7 L 6 7 L 6 8 L 5 8 L 5 9 L 4 9 L 4 10 L 3 10 L 3 11 L 2 11 L 2 12 L 1 12 L 1 13 L 0 13 L 0 15 L 1 15 L 15 15 L 16 15 L 16 13 L 15 13 L 15 12 L 14 12 L 14 11 L 13 11 L 13 10 L 13 9 L 12 9 L 12 8 L 11 8 L 11 7 L 12 7 L 12 6 L 13 6 L 13 5 L 14 5 L 14 6 L 15 6 L 15 5 L 16 5 L 16 3 L 16 1 L 14 1 L 9 1 L 9 4 L 11 4 L 11 5 L 10 5 L 10 6 L 9 6 L 9 5 L 8 5 L 8 4 L 7 4 L 7 3 L 7 1 L 6 1 L 6 0 L 3 0 z M 8 10 L 9 10 L 9 11 L 8 11 L 8 10 z "
       id="rect1091" />
    <path
       style="opacity:1;vector-effect:none;fill:#ffffff;fill-opacity:1;stroke:none;stroke-width:2;stroke-linecap:square;stroke-linejoin:miter;stroke-miterlimit:4;stroke-dasharray:none;stroke-opacity:1;paint-order:stroke fill markers"
       d="M 4 1 L 4 2 L 5 2 L 5 3 L 5 4 L 4 4 L 3 4 L 3 3 L 2 3 L 2 5 L 4 5 L 5 5 L 5 6 L 6 6 L 6 7 L 7 7 L 7 8 L 8 8 L 8 9 L 9 9 L 9 10 L 10 10 L 10 11 L 12 11 L 12 9 L 11 9 L 11 8 L 10 8 L 10 7 L 9 7 L 9 6 L 8 6 L 8 5 L 7 5 L 7 4 L 6 4 L 6 3 L 6 1 L 4 1 z M 10 7 L 11 7 L 11 6 L 10 6 L 10 7 z M 11 6 L 12 6 L 12 5 L 11 5 L 11 6 z M 12 5 L 13 5 L 13 4 L 12 4 L 12 5 z M 13 4 L 14 4 L 14 3 L 13 3 L 13 4 z M 14 3 L 15 3 L 15 2 L 14 2 L 14 3 z M 8 9 L 7 9 L 7 10 L 8 10 L 8 9 z M 7 10 L 6 10 L 6 11 L 7 11 L 7 10 z "
       id="rect118" />
    <path
       style="opacity:1;vector-effect:none;fill:#4d9be6;fill-opacity:1;paint-order:stroke fill markers"
       d="m 5,9 v 1 H 4 v 1 H 3 v 1 H 2 v 1 H 1 v 1 h 14 v -1 h -1 v -1 h -1 v -1 h -1 v -1 h -1 v 1 h -1 v 1 H 9 8 V 11 H 7 V 10 H 6 V 9 Z"
       id="rect84"
       inkscape:connector-curvature="0" />
    <rect
       style="opacity:1;vector-effect:none;fill:#ffffff;fill-opacity:1;stroke:none;stroke-width:2;stroke-linecap:square;stroke-linejoin:miter;stroke-miterlimit:4;stroke-dasharray:none;stroke-opacity:1;paint-order:stroke fill markers"
       id="rect1033"
       width="1"
       height="1"
       x="10"
       y="10" />
    <path
       style="opacity:1;vector-effect:none;fill:#8fd3ff;fill-opacity:1;stroke:none;stroke-width:2;stroke-linecap:square;stroke-linejoin:miter;stroke-miterlimit:4;stroke-dasharray:none;stroke-opacity:1;paint-order:stroke fill markers"
       d="M 5 9 L 5 10 L 6 10 L 6 9 L 5 9 z M 6 10 L 6 11 L 6 13 L 7 13 L 8 13 L 10 13 L 10 12 L 8 12 L 8 11 L 7 11 L 7 10 L 6 10 z M 10 12 L 11 12 L 11 11 L 10 11 L 10 12 z M 11 11 L 12 11 L 12 10 L 11 10 L 11 11 z M 12 11 L 12 13 L 13 13 L 14 13 L 14 12 L 13 12 L 13 11 L 12 11 z M 5 10 L 4 10 L 4 11 L 5 11 L 5 10 z M 4 11 L 3 11 L 3 12 L 4 12 L 4 11 z M 3 12 L 2 12 L 2 13 L 3 13 L 3 12 z "
       id="rect1041" />
    <rect
       style="opacity:1;vector-effect:none;fill:#4d65b4;fill-opacity:1;stroke:none;stroke-width:2;stroke-linecap:square;stroke-linejoin:miter;stroke-miterlimit:4;stroke-dasharray:none;stroke-opacity:1;paint-order:stroke fill markers"
       id="rect1063"
       width="14"
       height="1"
       x="1"
       y="13" />
    <path
       style="opacity:1;vector-effect:none;fill:#ffffff;fill-opacity:1;paint-order:stroke fill markers"
       d="M 10 2 L 10 3 L 14 3 L 14 5 L 15 5 L 15 3 L 15 2 L 10 2 z "
       id="rect1142" />
  </g>
</svg>
