<?xml version="1.0" encoding="UTF-8" standalone="no"?>
<!-- Created with Inkscape (http://www.inkscape.org/) -->

<svg
   xmlns:dc="http://purl.org/dc/elements/1.1/"
   xmlns:cc="http://creativecommons.org/ns#"
   xmlns:rdf="http://www.w3.org/1999/02/22-rdf-syntax-ns#"
   xmlns:svg="http://www.w3.org/2000/svg"
   xmlns="http://www.w3.org/2000/svg"
   xmlns:sodipodi="http://sodipodi.sourceforge.net/DTD/sodipodi-0.dtd"
   xmlns:inkscape="http://www.inkscape.org/namespaces/inkscape"
   width="16px"
   height="16px"
   viewBox="0 0 16 16"
   version="1.1"
   id="SVGRoot"
   inkscape:version="0.92.4 (5da689c313, 2019-01-14)"
   sodipodi:docname="nautilus-actions.svg">
  <defs
     id="defs10" />
  <sodipodi:namedview
     id="base"
     pagecolor="#ffffff"
     bordercolor="#666666"
     borderopacity="1.0"
     inkscape:pageopacity="0.0"
     inkscape:pageshadow="2"
     inkscape:zoom="22.627417"
     inkscape:cx="11.439462"
     inkscape:cy="7.0606656"
     inkscape:document-units="px"
     inkscape:current-layer="layer1"
     showgrid="true"
     inkscape:window-width="1280"
     inkscape:window-height="753"
     inkscape:window-x="-6"
     inkscape:window-y="-6"
     inkscape:window-maximized="1"
     inkscape:grid-bbox="true"
     showguides="false">
    <inkscape:grid
       type="xygrid"
       id="grid23" />
  </sodipodi:namedview>
  <metadata
     id="metadata13">
    <rdf:RDF>
      <cc:Work
         rdf:about="">
        <dc:format>image/svg+xml</dc:format>
        <dc:type
           rdf:resource="http://purl.org/dc/dcmitype/StillImage" />
        <dc:title></dc:title>
      </cc:Work>
    </rdf:RDF>
  </metadata>
  <g
     inkscape:label="Layer 1"
     inkscape:groupmode="layer"
     id="layer1">
    <g
       id="layer1-3"
       inkscape:label="Layer 1">
      <path
         id="rect39"
         d="M 4,0 V 1 H 3 V 3 H 2 V 5 H 14 V 3 H 13 V 1 H 12 V 0 Z"
         style="opacity:1;vector-effect:none;fill:#3e3546;fill-opacity:1;paint-order:stroke fill markers"
         inkscape:connector-curvature="0" />
      <rect
         y="3"
         x="3"
         height="6"
         width="10"
         id="rect25"
         style="opacity:1;vector-effect:none;fill:#ffffff;fill-opacity:1;paint-order:stroke fill markers" />
      <rect
         y="1"
         x="4"
         height="4"
         width="8"
         id="rect27"
         style="opacity:1;vector-effect:none;fill:#ffffff;fill-opacity:1;paint-order:stroke fill markers" />
      <path
         id="rect35"
         d="M 1,4 V 5 H 0 v 10 h 1 v 1 h 4 10 v -1 h 1 V 6 H 15 V 5 H 6 5 V 4 Z"
         style="opacity:1;vector-effect:none;fill:#3e3546;fill-opacity:1;paint-order:stroke fill markers"
         inkscape:connector-curvature="0" />
      <path
         id="rect21"
         d="M 1,5 V 15 H 5 15 V 6 H 5 V 5 Z"
         style="opacity:1;vector-effect:none;fill:#1ebc73;fill-opacity:1;paint-order:stroke fill markers"
         inkscape:connector-curvature="0" />
      <rect
         y="2"
         x="4"
         height="1"
         width="8"
         id="rect43"
         style="opacity:1;vector-effect:none;fill:#e3c896;fill-opacity:1;paint-order:stroke fill markers" />
      <rect
         y="4"
         x="5"
         height="1"
         width="8"
         id="rect45"
         style="opacity:1;vector-effect:none;fill:#e3c896;fill-opacity:1;paint-order:stroke fill markers" />
      <rect
         y="5"
         x="1"
         height="1"
         width="4"
         id="rect49"
         style="opacity:1;vector-effect:none;fill:#91db69;fill-opacity:1;paint-order:stroke fill markers" />
      <rect
         y="6"
         x="5"
         height="1"
         width="10"
         id="rect51"
         style="opacity:1;vector-effect:none;fill:#91db69;fill-opacity:1;paint-order:stroke fill markers" />
      <rect
         y="14"
         x="1"
         height="1"
         width="14"
         id="rect53"
         style="opacity:1;vector-effect:none;fill:#0b8a8f;fill-opacity:1;paint-order:stroke fill markers" />
      <rect
         y="9"
         x="6"
         height="1"
         width="4"
         id="rect58"
         style="opacity:1;vector-effect:none;fill:#ffffff;fill-opacity:1;paint-order:stroke fill markers" />
      <rect
         y="10"
         x="6"
         height="1"
         width="4"
         id="rect60"
         style="opacity:1;vector-effect:none;fill:#0b8a8f;fill-opacity:1;paint-order:stroke fill markers" />
    </g>
    <path
       style="opacity:1;vector-effect:none;fill:#3e3546;fill-opacity:1;stroke-width:1.08012342;paint-order:stroke fill markers"
       d="M 11 9 L 11 10 L 10 10 L 10 11 L 9 11 L 9 14 L 10 14 L 10 15 L 11 15 L 11 16 L 14 16 L 14 15 L 15 15 L 15 14 L 16 14 L 16 11 L 15 11 L 15 10 L 14 10 L 14 9 L 11 9 z "
       id="rect548" />
    <path
       style="opacity:1;vector-effect:none;fill:#625565;fill-opacity:1;stroke-width:1.11803401;paint-order:stroke fill markers"
       d="M 12 10 L 12 11 L 11 11 L 11 12 L 10 12 L 10 13 L 11 13 L 11 14 L 12 14 L 12 15 L 13 15 L 13 14 L 14 14 L 14 13 L 15 13 L 15 12 L 14 12 L 14 11 L 13 11 L 13 10 L 12 10 z "
       id="rect550" />
    <rect
       style="opacity:1;vector-effect:none;fill:#966c6c;fill-opacity:1;paint-order:stroke fill markers"
       id="rect563"
       width="1"
       height="1"
       x="12"
       y="10" />
    <rect
       style="opacity:1;vector-effect:none;fill:#966c6c;fill-opacity:1;paint-order:stroke fill markers"
       id="rect565"
       width="1"
       height="1"
       x="13"
       y="11" />
    <rect
       style="opacity:1;vector-effect:none;fill:#966c6c;fill-opacity:1;paint-order:stroke fill markers"
       id="rect567"
       width="1"
       height="1"
       x="11"
       y="11" />
    <rect
       style="opacity:1;vector-effect:none;fill:#966c6c;fill-opacity:1;paint-order:stroke fill markers"
       id="rect569"
       width="1"
       height="1"
       x="10"
       y="12" />
    <rect
       style="opacity:1;vector-effect:none;fill:#966c6c;fill-opacity:1;paint-order:stroke fill markers"
       id="rect571"
       width="1"
       height="1"
       x="14"
       y="12" />
    <rect
       style="opacity:1;vector-effect:none;fill:#625565;fill-opacity:1;paint-order:stroke fill markers"
       id="rect573"
       width="1"
       height="1"
       x="13"
       y="13" />
    <rect
       style="opacity:1;vector-effect:none;fill:#3e3546;fill-opacity:1;paint-order:stroke fill markers"
       id="rect577"
       width="1"
       height="1"
       x="12"
       y="12" />
  </g>
</svg>
