<?xml version="1.0" encoding="UTF-8" standalone="no"?>
<!-- Created with Inkscape (http://www.inkscape.org/) -->

<svg
   xmlns:dc="http://purl.org/dc/elements/1.1/"
   xmlns:cc="http://creativecommons.org/ns#"
   xmlns:rdf="http://www.w3.org/1999/02/22-rdf-syntax-ns#"
   xmlns:svg="http://www.w3.org/2000/svg"
   xmlns="http://www.w3.org/2000/svg"
   xmlns:sodipodi="http://sodipodi.sourceforge.net/DTD/sodipodi-0.dtd"
   xmlns:inkscape="http://www.inkscape.org/namespaces/inkscape"
   width="16px"
   height="16px"
   viewBox="0 0 16 16"
   version="1.1"
   id="SVGRoot"
   inkscape:version="0.92.4 (5da689c313, 2019-01-14)"
   sodipodi:docname="password-manager.svg">
  <defs
     id="defs10" />
  <sodipodi:namedview
     id="base"
     pagecolor="#ffffff"
     bordercolor="#666666"
     borderopacity="1.0"
     inkscape:pageopacity="0.0"
     inkscape:pageshadow="2"
     inkscape:zoom="32"
     inkscape:cx="6.4567175"
     inkscape:cy="8.1339224"
     inkscape:document-units="px"
     inkscape:current-layer="layer1"
     showgrid="true"
     inkscape:window-width="1280"
     inkscape:window-height="753"
     inkscape:window-x="-6"
     inkscape:window-y="-6"
     inkscape:window-maximized="1"
     inkscape:grid-bbox="true"
     showguides="true"
     inkscape:guide-bbox="true">
    <inkscape:grid
       type="xygrid"
       id="grid23" />
  </sodipodi:namedview>
  <metadata
     id="metadata13">
    <rdf:RDF>
      <cc:Work
         rdf:about="">
        <dc:format>image/svg+xml</dc:format>
        <dc:type
           rdf:resource="http://purl.org/dc/dcmitype/StillImage" />
        <dc:title></dc:title>
      </cc:Work>
    </rdf:RDF>
  </metadata>
  <g
     inkscape:label="Layer 1"
     inkscape:groupmode="layer"
     id="layer1">
    <path
       style="opacity:1;vector-effect:none;fill:#3e3546;fill-opacity:1;paint-order:stroke fill markers"
       d="M 6 8 L 6 9 L 5 9 L 5 10 L 4 10 L 4 12 L 5 12 L 5 16 L 6 16 L 10 16 L 10 8 L 6 8 z "
       id="rect2555" />
    <path
       style="opacity:1;vector-effect:none;fill:#3e3546;fill-opacity:1;paint-order:stroke fill markers"
       d="M 3 0 L 3 1 L 2 1 L 2 2 L 1 2 L 1 7 L 2 7 L 2 8 L 3 8 L 3 9 L 13 9 L 13 8 L 14 8 L 14 7 L 15 7 L 15 2 L 14 2 L 14 1 L 13 1 L 13 0 L 3 0 z M 5 3 L 11 3 L 11 6 L 5 6 L 5 3 z "
       id="rect2524" />
    <path
       style="opacity:1;vector-effect:none;fill:#fbb954;fill-opacity:1;paint-order:stroke fill markers"
       d="M 3 1 L 3 2 L 2 2 L 2 7 L 3 7 L 3 8 L 13 8 L 13 7 L 14 7 L 14 2 L 13 2 L 13 1 L 3 1 z M 5 2 L 11 2 L 11 3 L 12 3 L 12 6 L 11 6 L 11 7 L 5 7 L 5 6 L 4 6 L 4 3 L 5 3 L 5 2 z "
       id="rect2530" />
    <rect
       style="opacity:1;vector-effect:none;fill:#fbb954;fill-opacity:1;stroke-width:1.09544516;paint-order:stroke fill markers"
       id="rect2542"
       width="2"
       height="6"
       x="7"
       y="9" />
    <rect
       style="opacity:1;vector-effect:none;fill:#fbb954;fill-opacity:1;paint-order:stroke fill markers"
       id="rect2544"
       width="2"
       height="2"
       x="5"
       y="13" />
    <rect
       style="opacity:1;vector-effect:none;fill:#fbb954;fill-opacity:1;stroke-width:1.41421354;paint-order:stroke fill markers"
       id="rect2546"
       width="2"
       height="2"
       x="5"
       y="10" />
    <rect
       style="opacity:1;vector-effect:none;fill:#3e3546;fill-opacity:1;paint-order:stroke fill markers"
       id="rect2557"
       width="1"
       height="3"
       x="4"
       y="13" />
    <path
       style="opacity:1;vector-effect:none;fill:#fbff86;fill-opacity:1;paint-order:stroke fill markers"
       d="M 3,1 V 2 H 13 V 1 Z m 10,1 v 1 h 1 V 2 Z M 3,2 H 2 V 3 H 3 Z M 4,6 V 7 H 5 V 6 Z m 7,1 h 1 V 6 h -1 z"
       id="rect2560"
       inkscape:connector-curvature="0"
       sodipodi:nodetypes="ccccccccccccccccccccccccc" />
    <path
       style="opacity:1;vector-effect:none;fill:#cd683d;fill-opacity:1;paint-order:stroke fill markers"
       d="M 3,8 V 7 H 13 V 8 Z M 13,7 V 6 h 1 V 7 Z M 3,7 H 2 V 6 H 3 Z M 4,3 V 2 h 1 v 1 z m 7,-1 h 1 v 1 h -1 z"
       id="rect2560-2"
       inkscape:connector-curvature="0"
       sodipodi:nodetypes="ccccccccccccccccccccccccc" />
    <rect
       style="opacity:1;vector-effect:none;fill:#cd683d;fill-opacity:1;paint-order:stroke fill markers"
       id="rect2594"
       width="2"
       height="1"
       x="5"
       y="11" />
    <rect
       style="opacity:1;vector-effect:none;fill:#cd683d;fill-opacity:1;paint-order:stroke fill markers"
       id="rect2596"
       width="4"
       height="1"
       x="5"
       y="14" />
    <rect
       style="opacity:1;vector-effect:none;fill:#fbff86;fill-opacity:1;paint-order:stroke fill markers"
       id="rect2598"
       width="1"
       height="1"
       x="5"
       y="10" />
    <rect
       style="opacity:1;vector-effect:none;fill:#fbff86;fill-opacity:1;paint-order:stroke fill markers"
       id="rect2600"
       width="1"
       height="1"
       x="5"
       y="13" />
    <rect
       style="opacity:1;vector-effect:none;fill:#cd683d;fill-opacity:1;paint-order:stroke fill markers"
       id="rect2602"
       width="2"
       height="1"
       x="7"
       y="9" />
  </g>
</svg>
