<?xml version="1.0" encoding="UTF-8" standalone="no"?>
<!-- Created with Inkscape (http://www.inkscape.org/) -->

<svg
   xmlns:dc="http://purl.org/dc/elements/1.1/"
   xmlns:cc="http://creativecommons.org/ns#"
   xmlns:rdf="http://www.w3.org/1999/02/22-rdf-syntax-ns#"
   xmlns:svg="http://www.w3.org/2000/svg"
   xmlns="http://www.w3.org/2000/svg"
   xmlns:sodipodi="http://sodipodi.sourceforge.net/DTD/sodipodi-0.dtd"
   xmlns:inkscape="http://www.inkscape.org/namespaces/inkscape"
   width="16px"
   height="16px"
   viewBox="0 0 16 16"
   version="1.1"
   id="SVGRoot"
   inkscape:version="0.92.4 (5da689c313, 2019-01-14)"
   sodipodi:docname="code.svg">
  <defs
     id="defs10" />
  <sodipodi:namedview
     id="base"
     pagecolor="#ffffff"
     bordercolor="#666666"
     borderopacity="1.0"
     inkscape:pageopacity="0.0"
     inkscape:pageshadow="2"
     inkscape:zoom="22.627417"
     inkscape:cx="-0.33316537"
     inkscape:cy="5.7090647"
     inkscape:document-units="px"
     inkscape:current-layer="layer1"
     showgrid="true"
     inkscape:window-width="1280"
     inkscape:window-height="753"
     inkscape:window-x="-6"
     inkscape:window-y="-6"
     inkscape:window-maximized="1"
     inkscape:grid-bbox="true"
     showguides="true"
     inkscape:guide-bbox="true">
    <inkscape:grid
       type="xygrid"
       id="grid23" />
  </sodipodi:namedview>
  <metadata
     id="metadata13">
    <rdf:RDF>
      <cc:Work
         rdf:about="">
        <dc:format>image/svg+xml</dc:format>
        <dc:type
           rdf:resource="http://purl.org/dc/dcmitype/StillImage" />
        <dc:title></dc:title>
      </cc:Work>
    </rdf:RDF>
  </metadata>
  <g
     inkscape:label="Layer 1"
     inkscape:groupmode="layer"
     id="layer1">
    <path
       style="opacity:1;vector-effect:none;fill:#3e3546;fill-opacity:1;paint-order:stroke fill markers"
       d="M 10 0 L 10 1 L 9 1 L 9 2 L 8 2 L 8 3 L 7 3 L 7 4 L 6 4 L 6 3 L 5 3 L 5 2 L 4 2 L 4 3 L 3 3 L 3 4 L 2 4 L 2 5 L 1 5 L 1 6 L 2 6 L 2 7 L 3 7 L 3 8 L 2 8 L 2 9 L 1 9 L 1 10 L 2 10 L 2 11 L 3 11 L 3 12 L 4 12 L 4 13 L 5 13 L 5 12 L 6 12 L 6 11 L 7 11 L 7 12 L 8 12 L 8 13 L 9 13 L 9 14 L 10 14 L 10 16 L 12 16 L 12 15 L 14 15 L 14 14 L 15 14 L 15 13 L 16 13 L 16 3 L 15 3 L 15 2 L 14 2 L 14 1 L 12 1 L 12 0 L 10 0 z "
       id="rect281" />
    <path
       style="fill:#484a77"
       d="M 11,1 H 10 V 2 H 9 V 3 H 8 V 4 H 7 V 5 H 6 V 6 H 5 V 7 H 4 V 8 H 3 V 9 H 2 v 1 h 1 v 1 h 1 v 1 H 5 V 11 H 6 V 10 H 7 V 9 H 8 V 8 H 9 V 7 h 1 V 6 h 1 V 5 h 1 V 4 h 3 V 3 H 14 V 2 H 12 V 1 Z"
       id="path186"
       inkscape:connector-curvature="0" />
    <path
       style="fill:#4d65b4"
       d="M 2,5 H 3 V 4 H 4 V 3 h 1 v 1 h 1 v 1 h 1 v 1 h 1 v 1 h 1 v 1 h 1 v 1 h 1 v 1 h 1 v 1 h 3 v 2 h -1 v 1 h -2 v 1 H 11 V 14 H 10 V 13 H 9 V 12 H 8 V 11 H 7 V 10 H 6 V 9 H 5 V 8 H 4 V 7 H 3 V 6 H 2 Z"
       id="path203"
       inkscape:connector-curvature="0" />
    <path
       style="opacity:1;vector-effect:none;fill:#4d9be6;fill-opacity:1;paint-order:stroke fill markers"
       d="m 11,1 v 14 h 1 v -1 h 2 v -1 h 1 V 3 H 14 V 2 H 12 V 1 Z"
       id="rect176"
       inkscape:connector-curvature="0" />
    <path
       style="opacity:1;vector-effect:none;fill:#8fd3ff;fill-opacity:1;paint-order:stroke fill markers"
       d="m 11,1 v 1 h 1 V 1 Z m 1,1 v 1 h 2 V 2 Z m 2,1 v 1 h 1 V 3 Z"
       id="rect208"
       inkscape:connector-curvature="0" />
    <path
       style="opacity:1;vector-effect:none;fill:#4d65b4;fill-opacity:1;paint-order:stroke fill markers"
       d="m 14,12 v 1 h 1 v -1 z m 0,1 h -2 v 1 h 2 z m -2,1 h -1 v 1 h 1 z"
       id="rect214"
       inkscape:connector-curvature="0" />
    <path
       style="opacity:1;vector-effect:none;fill:#484a77;fill-opacity:1;paint-order:stroke fill markers"
       d="M 2,5 V 6 H 3 V 5 Z M 3,6 V 7 H 4 V 6 Z M 4,7 V 8 H 5 V 7 Z M 5,8 V 9 H 6 V 8 Z m 1,1 v 1 H 7 V 9 Z m 1,1 v 1 h 1 v -1 z m 1,1 v 1 h 1 v -1 z m 1,1 v 1 h 1 v 1 h 1 V 13 9 h -1 v 3 z"
       id="rect220"
       inkscape:connector-curvature="0" />
    <path
       style="opacity:1;vector-effect:none;fill:#4d9be6;fill-opacity:1;paint-order:stroke fill markers"
       d="M 4,3 V 4 H 5 V 3 Z M 5,4 V 5 H 6 V 4 Z M 6,5 V 6 H 7 V 5 Z M 7,6 V 7 H 8 V 6 Z M 8,7 V 8 H 9 V 7 Z m 1,1 v 1 h 1 V 8 Z M 4,4 H 3 v 1 h 1 z"
       id="rect239"
       inkscape:connector-curvature="0" />
  </g>
</svg>
