<?xml version="1.0" encoding="UTF-8" standalone="no"?>
<!-- Created with Inkscape (http://www.inkscape.org/) -->

<svg
   xmlns:dc="http://purl.org/dc/elements/1.1/"
   xmlns:cc="http://creativecommons.org/ns#"
   xmlns:rdf="http://www.w3.org/1999/02/22-rdf-syntax-ns#"
   xmlns:svg="http://www.w3.org/2000/svg"
   xmlns="http://www.w3.org/2000/svg"
   xmlns:sodipodi="http://sodipodi.sourceforge.net/DTD/sodipodi-0.dtd"
   xmlns:inkscape="http://www.inkscape.org/namespaces/inkscape"
   width="16px"
   height="16px"
   viewBox="0 0 16 16"
   version="1.1"
   id="SVGRoot"
   inkscape:version="0.92.4 (5da689c313, 2019-01-14)"
   sodipodi:docname="wine.svg">
  <defs
     id="defs10" />
  <sodipodi:namedview
     id="base"
     pagecolor="#ffffff"
     bordercolor="#666666"
     borderopacity="1.0"
     inkscape:pageopacity="0.0"
     inkscape:pageshadow="2"
     inkscape:zoom="22.627417"
     inkscape:cx="5.134462"
     inkscape:cy="7.7217117"
     inkscape:document-units="px"
     inkscape:current-layer="layer1"
     showgrid="true"
     inkscape:window-width="1280"
     inkscape:window-height="753"
     inkscape:window-x="-6"
     inkscape:window-y="-6"
     inkscape:window-maximized="1"
     inkscape:grid-bbox="true"
     showguides="false"
     inkscape:guide-bbox="true">
    <inkscape:grid
       type="xygrid"
       id="grid23" />
  </sodipodi:namedview>
  <metadata
     id="metadata13">
    <rdf:RDF>
      <cc:Work
         rdf:about="">
        <dc:format>image/svg+xml</dc:format>
        <dc:type
           rdf:resource="http://purl.org/dc/dcmitype/StillImage" />
        <dc:title></dc:title>
      </cc:Work>
    </rdf:RDF>
  </metadata>
  <g
     inkscape:label="Layer 1"
     inkscape:groupmode="layer"
     id="layer1">
    <path
       style="opacity:1;vector-effect:none;fill:#3e3546;fill-opacity:1;stroke-width:1.5;stroke-linecap:butt;stroke-linejoin:miter;stroke-miterlimit:4;stroke-dasharray:none;stroke-dashoffset:0;stroke-opacity:1;paint-order:stroke fill markers"
       d="M 1 0 L 1 1 L 0 1 L 0 15 L 1 15 L 1 16 L 15 16 L 15 15 L 16 15 L 16 1 L 15 1 L 15 0 L 1 0 z "
       id="rect612" />
    <path
       style="opacity:1;vector-effect:none;fill:#4d9be6;fill-opacity:1;stroke-width:1.28571427;stroke-linecap:butt;stroke-linejoin:miter;stroke-miterlimit:4;stroke-dasharray:none;stroke-dashoffset:0;stroke-opacity:1;paint-order:stroke fill markers"
       d="M 1 1 L 1 7 L 7 7 L 7 1 L 1 1 z M 9 1 L 9 7 L 15 7 L 15 1 L 9 1 z M 1 9 L 1 15 L 7 15 L 7 9 L 1 9 z M 9 9 L 9 15 L 15 15 L 15 9 L 9 9 z "
       id="rect625" />
    <path
       style="opacity:1;vector-effect:none;fill:#8fd3ff;fill-opacity:1;stroke-width:1.5;stroke-linecap:butt;stroke-linejoin:miter;stroke-miterlimit:4;stroke-dasharray:none;stroke-dashoffset:0;stroke-opacity:1;paint-order:stroke fill markers"
       d="M 1 1 L 1 2 L 7 2 L 7 1 L 1 1 z M 9 1 L 9 2 L 15 2 L 15 1 L 9 1 z M 1 9 L 1 10 L 7 10 L 7 9 L 1 9 z M 9 9 L 9 10 L 15 10 L 15 9 L 9 9 z "
       id="rect661" />
    <path
       style="opacity:1;vector-effect:none;fill:#4d65b4;fill-opacity:1;stroke-width:1.5;stroke-linecap:butt;stroke-linejoin:miter;stroke-miterlimit:4;stroke-dasharray:none;stroke-dashoffset:0;stroke-opacity:1;paint-order:stroke fill markers"
       d="M 1 6 L 1 7 L 7 7 L 7 6 L 1 6 z M 9 6 L 9 7 L 15 7 L 15 6 L 9 6 z M 1 14 L 1 15 L 7 15 L 7 14 L 1 14 z M 9 14 L 9 15 L 15 15 L 15 14 L 9 14 z "
       id="rect669" />
  </g>
</svg>
