<?xml version="1.0" encoding="UTF-8" standalone="no"?>
<!-- Created with Inkscape (http://www.inkscape.org/) -->

<svg
   xmlns:dc="http://purl.org/dc/elements/1.1/"
   xmlns:cc="http://creativecommons.org/ns#"
   xmlns:rdf="http://www.w3.org/1999/02/22-rdf-syntax-ns#"
   xmlns:svg="http://www.w3.org/2000/svg"
   xmlns="http://www.w3.org/2000/svg"
   xmlns:sodipodi="http://sodipodi.sourceforge.net/DTD/sodipodi-0.dtd"
   xmlns:inkscape="http://www.inkscape.org/namespaces/inkscape"
   width="16px"
   height="16px"
   viewBox="0 0 16 16"
   version="1.1"
   id="SVGRoot"
   inkscape:version="0.92.4 (5da689c313, 2019-01-14)"
   sodipodi:docname="accessories-character-map.svg">
  <defs
     id="defs10" />
  <sodipodi:namedview
     id="base"
     pagecolor="#ffffff"
     bordercolor="#666666"
     borderopacity="1.0"
     inkscape:pageopacity="0.0"
     inkscape:pageshadow="2"
     inkscape:zoom="22.627417"
     inkscape:cx="6.772966"
     inkscape:cy="8.7873014"
     inkscape:document-units="px"
     inkscape:current-layer="layer1"
     showgrid="true"
     inkscape:window-width="1280"
     inkscape:window-height="753"
     inkscape:window-x="-6"
     inkscape:window-y="-6"
     inkscape:window-maximized="1"
     inkscape:grid-bbox="true"
     showguides="true"
     inkscape:guide-bbox="true">
    <inkscape:grid
       type="xygrid"
       id="grid23" />
  </sodipodi:namedview>
  <metadata
     id="metadata13">
    <rdf:RDF>
      <cc:Work
         rdf:about="">
        <dc:format>image/svg+xml</dc:format>
        <dc:type
           rdf:resource="http://purl.org/dc/dcmitype/StillImage" />
        <dc:title />
      </cc:Work>
    </rdf:RDF>
  </metadata>
  <g
     inkscape:label="Layer 1"
     inkscape:groupmode="layer"
     id="layer1">
    <path
       style="opacity:1;vector-effect:none;fill:#3e3546;fill-opacity:1;paint-order:stroke fill markers"
       d="M 3 0 L 3 1 L 2 1 L 2 2 L 1 2 L 1 3 L 0 3 L 0 15 L 1 15 L 1 16 L 3 16 L 13 16 L 15 16 L 15 15 L 16 15 L 16 3 L 15 3 L 15 2 L 14 2 L 14 1 L 13 1 L 13 0 L 3 0 z "
       id="rect28" />
    <path
       style="opacity:1;vector-effect:none;fill:#625565;fill-opacity:1;paint-order:stroke fill markers"
       d="M 3 1 L 3 2 L 2 2 L 2 3 L 1 3 L 1 15 L 15 15 L 15 3 L 14 3 L 14 2 L 13 2 L 13 1 L 3 1 z "
       id="rect36" />
    <path
       style="opacity:1;vector-effect:none;fill:#ab947a;fill-opacity:1;paint-order:stroke fill markers"
       d="M 3 1 L 3 11 L 13 11 L 13 1 L 3 1 z M 1 14 L 1 15 L 2 15 L 2 14 L 1 14 z M 14 14 L 14 15 L 15 15 L 15 14 L 14 14 z "
       id="rect42" />
    <path
       style="opacity:1;vector-effect:none;fill:#966c6c;fill-opacity:1;paint-order:stroke fill markers"
       d="M 2 2 L 2 3 L 3 3 L 3 2 L 2 2 z M 2 3 L 1 3 L 1 4 L 2 4 L 2 3 z M 13 2 L 13 3 L 14 3 L 14 2 L 13 2 z M 14 3 L 14 4 L 15 4 L 15 3 L 14 3 z M 3 11 L 3 12 L 2 12 L 2 13 L 1 13 L 1 14 L 2 14 L 2 15 L 3 15 L 13 15 L 14 15 L 14 14 L 15 14 L 15 13 L 14 13 L 14 12 L 13 12 L 13 11 L 3 11 z "
       id="rect44" />
    <rect
       style="opacity:1;vector-effect:none;fill:#e3c896;fill-opacity:1;paint-order:stroke fill markers"
       id="rect64"
       width="10"
       height="1"
       x="3"
       y="1" />
    <path
       style="opacity:1;vector-effect:none;fill:#ffffff;fill-opacity:1;stroke-width:1.15470052;paint-order:stroke fill markers"
       d="M 8 3 L 8 4 L 11 4 L 11 3 L 8 3 z M 8 5 L 8 6 L 11 6 L 11 7 L 9 7 L 8 7 L 8 10 L 9 10 L 11 10 L 12 10 L 12 6 L 12 5 L 8 5 z M 9 8 L 11 8 L 11 9 L 9 9 L 9 8 z "
       id="rect71" />
  </g>
</svg>
