<?xml version="1.0" encoding="UTF-8" standalone="no"?>
<!-- Created with Inkscape (http://www.inkscape.org/) -->

<svg
   xmlns:dc="http://purl.org/dc/elements/1.1/"
   xmlns:cc="http://creativecommons.org/ns#"
   xmlns:rdf="http://www.w3.org/1999/02/22-rdf-syntax-ns#"
   xmlns:svg="http://www.w3.org/2000/svg"
   xmlns="http://www.w3.org/2000/svg"
   xmlns:sodipodi="http://sodipodi.sourceforge.net/DTD/sodipodi-0.dtd"
   xmlns:inkscape="http://www.inkscape.org/namespaces/inkscape"
   width="16px"
   height="16px"
   viewBox="0 0 16 16"
   version="1.1"
   id="SVGRoot"
   inkscape:version="0.92.4 (5da689c313, 2019-01-14)"
   sodipodi:docname="burp.svg">
  <defs
     id="defs10" />
  <sodipodi:namedview
     id="base"
     pagecolor="#ffffff"
     bordercolor="#666666"
     borderopacity="1.0"
     inkscape:pageopacity="0.0"
     inkscape:pageshadow="2"
     inkscape:zoom="22.627417"
     inkscape:cx="4.4554196"
     inkscape:cy="6.9864053"
     inkscape:document-units="px"
     inkscape:current-layer="layer1"
     showgrid="true"
     inkscape:window-width="1280"
     inkscape:window-height="753"
     inkscape:window-x="-6"
     inkscape:window-y="-6"
     inkscape:window-maximized="1"
     inkscape:grid-bbox="true"
     showguides="false">
    <inkscape:grid
       type="xygrid"
       id="grid23" />
  </sodipodi:namedview>
  <metadata
     id="metadata13">
    <rdf:RDF>
      <cc:Work
         rdf:about="">
        <dc:format>image/svg+xml</dc:format>
        <dc:type
           rdf:resource="http://purl.org/dc/dcmitype/StillImage" />
        <dc:title></dc:title>
      </cc:Work>
    </rdf:RDF>
  </metadata>
  <g
     inkscape:label="Layer 1"
     inkscape:groupmode="layer"
     id="layer1">
    <rect
       style="opacity:1;vector-effect:none;fill:#3e3546;fill-opacity:1;paint-order:stroke fill markers"
       id="rect223"
       width="4"
       height="16"
       x="6"
       y="0" />
    <rect
       style="opacity:1;vector-effect:none;fill:#3e3546;fill-opacity:1;paint-order:stroke fill markers"
       id="rect225"
       width="8"
       height="14"
       x="4"
       y="1" />
    <rect
       style="opacity:1;vector-effect:none;fill:#3e3546;fill-opacity:1;paint-order:stroke fill markers"
       id="rect227"
       width="12"
       height="12"
       x="2"
       y="2" />
    <rect
       style="opacity:1;vector-effect:none;fill:#3e3546;fill-opacity:1;paint-order:stroke fill markers"
       id="rect229"
       width="16"
       height="10"
       x="0"
       y="3" />
    <path
       style="opacity:1;vector-effect:none;fill:#fb6b1d;fill-opacity:1;paint-order:stroke fill markers"
       d="M 6 1 L 6 15 L 10 15 L 10 14 L 12 14 L 12 13 L 14 13 L 14 12 L 15 12 L 15 4 L 14 4 L 14 3 L 12 3 L 12 2 L 10 2 L 10 1 L 6 1 z "
       id="rect233" />
    <rect
       style="opacity:1;vector-effect:none;fill:#ffffff;fill-opacity:1;paint-order:stroke fill markers"
       id="rect242"
       width="1"
       height="14"
       x="7"
       y="1" />
    <path
       style="opacity:1;vector-effect:none;fill:#ab947a;fill-opacity:1;paint-order:stroke fill markers"
       d="M 6 1 L 6 2 L 4 2 L 4 3 L 2 3 L 2 4 L 1 4 L 1 12 L 2 12 L 2 13 L 4 13 L 4 14 L 6 14 L 6 15 L 7 15 L 7 1 L 6 1 z "
       id="rect244" />
    <path
       style="opacity:1;vector-effect:none;fill:#fbb954;fill-opacity:1;paint-order:stroke fill markers"
       d="M 8 1 L 8 2 L 10 2 L 10 1 L 8 1 z M 10 2 L 10 3 L 12 3 L 12 2 L 10 2 z M 12 3 L 12 4 L 14 4 L 14 3 L 12 3 z M 14 4 L 14 5 L 15 5 L 15 4 L 14 4 z "
       id="rect253" />
    <path
       style="opacity:1;vector-effect:none;fill:#e3c896;fill-opacity:1;paint-order:stroke fill markers"
       d="M 6 1 L 6 2 L 7 2 L 7 1 L 6 1 z M 6 2 L 4 2 L 4 3 L 6 3 L 6 2 z M 4 3 L 2 3 L 2 4 L 4 4 L 4 3 z M 2 4 L 1 4 L 1 5 L 2 5 L 2 4 z "
       id="rect261" />
    <path
       style="opacity:1;vector-effect:none;fill:#966c6c;fill-opacity:1;paint-order:stroke fill markers"
       d="M 1 11 L 1 12 L 2 12 L 2 11 L 1 11 z M 2 12 L 2 13 L 4 13 L 4 12 L 2 12 z M 4 13 L 4 14 L 6 14 L 6 13 L 4 13 z M 6 14 L 6 15 L 7 15 L 7 14 L 6 14 z "
       id="rect269" />
    <path
       style="opacity:1;vector-effect:none;fill:#e83b3b;fill-opacity:1;paint-order:stroke fill markers"
       d="M 14 11 L 14 12 L 15 12 L 15 11 L 14 11 z M 14 12 L 12 12 L 12 13 L 14 13 L 14 12 z M 12 13 L 10 13 L 10 14 L 12 14 L 12 13 z M 10 14 L 8 14 L 8 15 L 10 15 L 10 14 z "
       id="rect282" />
    <path
       style="opacity:1;vector-effect:none;fill:#ffffff;fill-opacity:1;paint-order:stroke fill markers"
       d="M 11 4 L 11 6 L 12 6 L 12 4 L 11 4 z M 11 6 L 10 6 L 10 7 L 9 7 L 9 8 L 11 8 L 11 9 L 13 9 L 13 10 L 14 10 L 14 9 L 14 8 L 12 8 L 12 7 L 11 7 L 11 6 z M 13 10 L 12 10 L 12 11 L 13 11 L 13 10 z M 12 11 L 11 11 L 11 13 L 12 13 L 12 11 z "
       id="rect291" />
  </g>
</svg>
