<?xml version="1.0" encoding="UTF-8" standalone="no"?>
<!-- Created with Inkscape (http://www.inkscape.org/) -->

<svg
   xmlns:dc="http://purl.org/dc/elements/1.1/"
   xmlns:cc="http://creativecommons.org/ns#"
   xmlns:rdf="http://www.w3.org/1999/02/22-rdf-syntax-ns#"
   xmlns:svg="http://www.w3.org/2000/svg"
   xmlns="http://www.w3.org/2000/svg"
   xmlns:sodipodi="http://sodipodi.sourceforge.net/DTD/sodipodi-0.dtd"
   xmlns:inkscape="http://www.inkscape.org/namespaces/inkscape"
   width="16px"
   height="16px"
   viewBox="0 0 16 16"
   version="1.1"
   id="SVGRoot"
   inkscape:version="0.92.4 (5da689c313, 2019-01-14)"
   sodipodi:docname="nmap.svg">
  <defs
     id="defs10" />
  <sodipodi:namedview
     id="base"
     pagecolor="#ffffff"
     bordercolor="#666666"
     borderopacity="1.0"
     inkscape:pageopacity="0.0"
     inkscape:pageshadow="2"
     inkscape:zoom="22.627417"
     inkscape:cx="8.1707769"
     inkscape:cy="6.9864053"
     inkscape:document-units="px"
     inkscape:current-layer="layer1"
     showgrid="true"
     inkscape:window-width="1280"
     inkscape:window-height="753"
     inkscape:window-x="-6"
     inkscape:window-y="-6"
     inkscape:window-maximized="1"
     inkscape:grid-bbox="true">
    <inkscape:grid
       type="xygrid"
       id="grid23" />
  </sodipodi:namedview>
  <metadata
     id="metadata13">
    <rdf:RDF>
      <cc:Work
         rdf:about="">
        <dc:format>image/svg+xml</dc:format>
        <dc:type
           rdf:resource="http://purl.org/dc/dcmitype/StillImage" />
        <dc:title></dc:title>
      </cc:Work>
    </rdf:RDF>
  </metadata>
  <g
     inkscape:label="Layer 1"
     inkscape:groupmode="layer"
     id="layer1">
    <path
       style="opacity:1;vector-effect:none;fill:#3e3546;fill-opacity:1;paint-order:stroke fill markers"
       d="M 7 0 L 7 1 L 6 1 L 6 15 L 7 15 L 7 16 L 9 16 L 9 15 L 10 15 L 10 1 L 9 1 L 9 0 L 7 0 z "
       id="rect125" />
    <rect
       style="opacity:1;vector-effect:none;fill:#0b8a8f;fill-opacity:1;paint-order:stroke fill markers"
       id="rect121"
       width="2"
       height="14"
       x="7"
       y="1" />
    <path
       style="opacity:1;vector-effect:none;fill:#3e3546;fill-opacity:1;paint-order:stroke fill markers"
       d="M 4,3 V 4 H 2 V 5 H 1 V 6 H 0 v 1 3 h 1 v 1 h 1 v 1 h 2 v 1 h 8 v -1 h 2 v -1 h 1 v -1 h 1 V 7 6 H 15 V 5 H 14 V 4 H 12 V 3 Z"
       id="rect58"
       inkscape:connector-curvature="0" />
    <path
       style="opacity:1;vector-effect:none;fill:#ffffff;fill-opacity:1;paint-order:stroke fill markers"
       d="M 4 4 L 4 5 L 2 5 L 2 6 L 1 6 L 1 10 L 2 10 L 2 11 L 4 11 L 4 12 L 12 12 L 12 11 L 14 11 L 14 10 L 15 10 L 15 6 L 14 6 L 14 5 L 12 5 L 12 4 L 4 4 z "
       id="rect75" />
    <path
       style="opacity:1;vector-effect:none;fill:#8fd3ff;fill-opacity:1;paint-order:stroke fill markers"
       d="m 4,4 v 1 h 8 V 4 Z m 8,1 v 1 h 2 V 5 Z m 2,1 v 4 h 1 V 6 Z M 4,5 H 2 V 6 H 4 Z M 2,6 H 1 v 4 h 1 z"
       id="rect81"
       inkscape:connector-curvature="0" />
    <path
       style="opacity:1;vector-effect:none;fill:#4d9be6;fill-opacity:1;paint-order:stroke fill markers"
       d="M 2 10 L 2 11 L 4 11 L 4 10 L 2 10 z M 12 10 L 12 11 L 14 11 L 14 10 L 12 10 z "
       id="rect93" />
    <rect
       style="opacity:1;vector-effect:none;fill:#4d65b4;fill-opacity:1;paint-order:stroke fill markers"
       id="rect97"
       width="8"
       height="1"
       x="4"
       y="11" />
    <path
       style="opacity:1;vector-effect:none;fill:#3e3546;fill-opacity:1;paint-order:stroke fill markers"
       d="M 6 5 L 6 6 L 5 6 L 5 10 L 6 10 L 6 11 L 10 11 L 10 10 L 11 10 L 11 6 L 10 6 L 10 5 L 6 5 z "
       id="rect101" />
    <rect
       style="opacity:1;vector-effect:none;fill:#0b8a8f;fill-opacity:1;paint-order:stroke fill markers"
       id="rect109"
       width="4"
       height="4"
       x="6"
       y="6" />
    <rect
       style="opacity:1;vector-effect:none;fill:#91db69;fill-opacity:1;stroke-width:1.41421354;paint-order:stroke fill markers"
       id="rect113"
       width="4"
       height="2"
       x="6"
       y="8" />
    <rect
       style="opacity:1;vector-effect:none;fill:#3e3546;fill-opacity:1;paint-order:stroke fill markers"
       id="rect111"
       width="2"
       height="2"
       x="7"
       y="7" />
    <rect
       style="opacity:1;vector-effect:none;fill:#ffffff;fill-opacity:1;paint-order:stroke fill markers"
       id="rect115"
       width="1"
       height="1"
       x="6"
       y="6" />
    <rect
       style="opacity:1;vector-effect:none;fill:#1ebc73;fill-opacity:1;paint-order:stroke fill markers"
       id="rect127"
       width="2"
       height="1"
       x="7"
       y="1" />
    <rect
       style="opacity:1;vector-effect:none;fill:#0b5e65;fill-opacity:1;paint-order:stroke fill markers"
       id="rect129"
       width="2"
       height="1"
       x="7"
       y="14" />
  </g>
</svg>
