<?xml version="1.0" encoding="UTF-8" standalone="no"?>
<!-- Created with Inkscape (http://www.inkscape.org/) -->

<svg
   xmlns:dc="http://purl.org/dc/elements/1.1/"
   xmlns:cc="http://creativecommons.org/ns#"
   xmlns:rdf="http://www.w3.org/1999/02/22-rdf-syntax-ns#"
   xmlns:svg="http://www.w3.org/2000/svg"
   xmlns="http://www.w3.org/2000/svg"
   xmlns:sodipodi="http://sodipodi.sourceforge.net/DTD/sodipodi-0.dtd"
   xmlns:inkscape="http://www.inkscape.org/namespaces/inkscape"
   width="16px"
   height="16px"
   viewBox="0 0 16 16"
   version="1.1"
   id="SVGRoot"
   inkscape:version="0.92.4 (5da689c313, 2019-01-14)"
   sodipodi:docname="peg-e.svg">
  <defs
     id="defs10" />
  <sodipodi:namedview
     id="base"
     pagecolor="#ffffff"
     bordercolor="#666666"
     borderopacity="1.0"
     inkscape:pageopacity="0.0"
     inkscape:pageshadow="2"
     inkscape:zoom="22.627417"
     inkscape:cx="8"
     inkscape:cy="7.40625"
     inkscape:document-units="px"
     inkscape:current-layer="layer1"
     showgrid="true"
     inkscape:window-width="1280"
     inkscape:window-height="753"
     inkscape:window-x="-6"
     inkscape:window-y="-6"
     inkscape:window-maximized="1"
     inkscape:grid-bbox="true">
    <inkscape:grid
       type="xygrid"
       id="grid23" />
  </sodipodi:namedview>
  <metadata
     id="metadata13">
    <rdf:RDF>
      <cc:Work
         rdf:about="">
        <dc:format>image/svg+xml</dc:format>
        <dc:type
           rdf:resource="http://purl.org/dc/dcmitype/StillImage" />
        <dc:title></dc:title>
      </cc:Work>
    </rdf:RDF>
  </metadata>
  <g
     inkscape:label="Layer 1"
     inkscape:groupmode="layer"
     id="layer1">
    <path
       style="opacity:1;vector-effect:none;fill:#3e3546;fill-opacity:1;paint-order:stroke fill markers"
       d="M 5 0 L 5 1 L 3 1 L 3 2 L 2 2 L 2 3 L 1 3 L 1 5 L 0 5 L 0 11 L 1 11 L 1 13 L 2 13 L 2 14 L 3 14 L 3 15 L 5 15 L 5 16 L 11 16 L 11 15 L 13 15 L 13 14 L 14 14 L 14 13 L 15 13 L 15 11 L 16 11 L 16 5 L 15 5 L 15 3 L 14 3 L 14 2 L 13 2 L 13 1 L 11 1 L 11 0 L 5 0 z "
       id="rect289" />
    <path
       style="opacity:1;vector-effect:none;fill:#4d9be6;fill-opacity:1;paint-order:stroke fill markers"
       d="M 5 1 L 5 2 L 3 2 L 3 3 L 2 3 L 2 5 L 1 5 L 1 11 L 2 11 L 2 13 L 3 13 L 3 14 L 5 14 L 5 15 L 11 15 L 11 14 L 13 14 L 13 13 L 14 13 L 14 11 L 15 11 L 15 5 L 14 5 L 14 3 L 13 3 L 13 2 L 11 2 L 11 1 L 5 1 z "
       id="rect300" />
    <path
       style="opacity:1;vector-effect:none;fill:#4d65b4;fill-opacity:1;paint-order:stroke fill markers"
       d="M 2 11 L 2 13 L 3 13 L 3 14 L 5 14 L 5 15 L 11 15 L 11 14 L 13 14 L 13 13 L 14 13 L 14 11 L 13 11 L 13 12 L 10 12 L 10 13 L 6 13 L 6 12 L 3 12 L 3 11 L 2 11 z "
       id="rect311" />
    <path
       style="opacity:1;vector-effect:none;fill:#8fd3ff;fill-opacity:1;paint-order:stroke fill markers"
       d="M 6 2 L 6 3 L 5 3 L 5 4 L 4 4 L 4 6 L 5 6 L 5 7 L 11 7 L 11 6 L 12 6 L 12 4 L 11 4 L 11 3 L 10 3 L 10 2 L 6 2 z "
       id="rect327" />
  </g>
</svg>
