<?xml version="1.0" encoding="UTF-8" standalone="no"?>
<!-- Created with Inkscape (http://www.inkscape.org/) -->

<svg
   xmlns:dc="http://purl.org/dc/elements/1.1/"
   xmlns:cc="http://creativecommons.org/ns#"
   xmlns:rdf="http://www.w3.org/1999/02/22-rdf-syntax-ns#"
   xmlns:svg="http://www.w3.org/2000/svg"
   xmlns="http://www.w3.org/2000/svg"
   xmlns:sodipodi="http://sodipodi.sourceforge.net/DTD/sodipodi-0.dtd"
   xmlns:inkscape="http://www.inkscape.org/namespaces/inkscape"
   width="16px"
   height="16px"
   viewBox="0 0 16 16"
   version="1.1"
   id="SVGRoot"
   inkscape:version="0.92.4 (5da689c313, 2019-01-14)"
   sodipodi:docname="preferences-system-search.svg">
  <defs
     id="defs10" />
  <sodipodi:namedview
     id="base"
     pagecolor="#ffffff"
     bordercolor="#666666"
     borderopacity="1.0"
     inkscape:pageopacity="0.0"
     inkscape:pageshadow="2"
     inkscape:zoom="22.627417"
     inkscape:cx="-1.3878881"
     inkscape:cy="6.8965647"
     inkscape:document-units="px"
     inkscape:current-layer="layer1"
     showgrid="true"
     inkscape:window-width="1280"
     inkscape:window-height="753"
     inkscape:window-x="-6"
     inkscape:window-y="-6"
     inkscape:window-maximized="1"
     inkscape:grid-bbox="true"
     showguides="true"
     inkscape:guide-bbox="true">
    <inkscape:grid
       type="xygrid"
       id="grid23" />
  </sodipodi:namedview>
  <metadata
     id="metadata13">
    <rdf:RDF>
      <cc:Work
         rdf:about="">
        <dc:format>image/svg+xml</dc:format>
        <dc:type
           rdf:resource="http://purl.org/dc/dcmitype/StillImage" />
        <dc:title></dc:title>
      </cc:Work>
    </rdf:RDF>
  </metadata>
  <g
     inkscape:label="Layer 1"
     inkscape:groupmode="layer"
     id="layer1">
    <rect
       style="opacity:1;vector-effect:none;fill:#3e3546;fill-opacity:1;paint-order:stroke fill markers"
       id="rect58"
       width="3"
       height="3"
       x="5"
       y="8" />
    <path
       style="opacity:1;vector-effect:none;fill:#3e3546;fill-opacity:1;stroke-width:0.91287094;paint-order:stroke fill markers"
       d="M 8 0 L 8 1 L 7 1 L 7 2 L 6 2 L 6 3 L 5 3 L 5 8 L 6 8 L 6 9 L 7 9 L 7 10 L 8 10 L 8 11 L 13 11 L 13 10 L 14 10 L 14 9 L 15 9 L 15 8 L 16 8 L 16 3 L 15 3 L 15 2 L 14 2 L 14 1 L 13 1 L 13 0 L 8 0 z "
       id="rect56" />
    <path
       style="opacity:1;vector-effect:none;fill:#3e3546;fill-opacity:1;paint-order:stroke fill markers"
       d="M 4 9 L 4 10 L 3 10 L 3 11 L 2 11 L 2 12 L 1 12 L 1 13 L 0 13 L 0 16 L 3 16 L 3 15 L 4 15 L 4 14 L 5 14 L 5 13 L 6 13 L 6 12 L 7 12 L 7 9 L 4 9 z "
       id="rect48" />
    <path
       style="opacity:1;vector-effect:none;fill:#cd683d;fill-opacity:1;paint-order:stroke fill markers"
       d="M 5 9 L 5 10 L 4 10 L 4 11 L 3 11 L 3 12 L 2 12 L 2 13 L 1 13 L 1 15 L 3 15 L 3 14 L 4 14 L 4 13 L 5 13 L 5 12 L 6 12 L 6 11 L 7 11 L 7 9 L 5 9 z "
       id="rect18" />
    <path
       style="opacity:1;vector-effect:none;fill:#ab947a;fill-opacity:1;stroke-width:1.11803401;paint-order:stroke fill markers"
       d="M 8 1 L 8 2 L 7 2 L 7 3 L 6 3 L 6 8 L 7 8 L 7 9 L 8 9 L 8 10 L 13 10 L 13 9 L 14 9 L 14 8 L 15 8 L 15 3 L 14 3 L 14 2 L 13 2 L 13 1 L 8 1 z "
       id="rect28" />
    <path
       style="opacity:1;vector-effect:none;fill:#8fd3ff;fill-opacity:1;paint-order:stroke fill markers"
       d="M 9 3 L 9 4 L 8 4 L 8 7 L 9 7 L 9 8 L 12 8 L 12 7 L 13 7 L 13 4 L 12 4 L 12 3 L 9 3 z "
       id="rect36" />
    <path
       style="fill:#fbb954"
       d="M 1,14 H 2 V 13 H 3 V 12 H 4 V 11 H 5 V 10 H 6 V 9 H 5 v 1 H 4 v 1 H 3 v 1 H 2 v 1 H 1 Z"
       id="path61"
       inkscape:connector-curvature="0" />
    <path
       style="fill:#9e4539"
       d="m 1,14 v 1 H 3 V 14 H 4 V 13 H 5 V 12 H 6 V 11 H 7 V 9 H 6 v 2 H 5 v 1 H 4 v 1 H 3 v 1 z"
       id="path63"
       inkscape:connector-curvature="0" />
    <rect
       style="opacity:1;vector-effect:none;fill:#ffffff;fill-opacity:1;stroke-width:0.70710677;paint-order:stroke fill markers"
       id="rect73"
       width="1"
       height="1"
       x="10"
       y="4" />
    <rect
       style="opacity:1;vector-effect:none;fill:#ffffff;fill-opacity:1;paint-order:stroke fill markers"
       id="rect75"
       width="1"
       height="1"
       x="9"
       y="5" />
    <path
       style="opacity:1;vector-effect:none;fill:#4d9be6;fill-opacity:1;paint-order:stroke fill markers"
       d="M 9 3 L 9 4 L 8 4 L 8 7 L 9 7 L 9 5 L 10 5 L 10 4 L 12 4 L 12 3 L 9 3 z "
       id="rect77" />
    <path
       style="fill:#e3c896"
       d="M 6,5 H 7 V 3 H 8 V 2 h 5 v 1 h 1 V 2 H 13 V 1 H 8 V 2 H 7 V 3 H 6 Z"
       id="path84"
       inkscape:connector-curvature="0" />
    <path
       style="fill:#966c6c"
       d="M 15,6 H 14 V 8 H 13 V 9 H 8 V 8 H 7 v 1 h 1 v 1 h 5 V 9 h 1 V 8 h 1 z"
       id="path84-3"
       inkscape:connector-curvature="0" />
  </g>
</svg>
