<?xml version="1.0" encoding="UTF-8" standalone="no"?>
<!-- Created with Inkscape (http://www.inkscape.org/) -->

<svg
   xmlns:dc="http://purl.org/dc/elements/1.1/"
   xmlns:cc="http://creativecommons.org/ns#"
   xmlns:rdf="http://www.w3.org/1999/02/22-rdf-syntax-ns#"
   xmlns:svg="http://www.w3.org/2000/svg"
   xmlns="http://www.w3.org/2000/svg"
   xmlns:sodipodi="http://sodipodi.sourceforge.net/DTD/sodipodi-0.dtd"
   xmlns:inkscape="http://www.inkscape.org/namespaces/inkscape"
   width="16px"
   height="16px"
   viewBox="0 0 16 16"
   version="1.1"
   id="SVGRoot"
   inkscape:version="0.92.4 (5da689c313, 2019-01-14)"
   sodipodi:docname="utilities-tweak-tool.svg">
  <defs
     id="defs10" />
  <sodipodi:namedview
     id="base"
     pagecolor="#ffffff"
     bordercolor="#666666"
     borderopacity="1.0"
     inkscape:pageopacity="0.0"
     inkscape:pageshadow="2"
     inkscape:zoom="22.627417"
     inkscape:cx="8.1707769"
     inkscape:cy="7.0606656"
     inkscape:document-units="px"
     inkscape:current-layer="layer1"
     showgrid="true"
     inkscape:window-width="1280"
     inkscape:window-height="753"
     inkscape:window-x="-6"
     inkscape:window-y="-6"
     inkscape:window-maximized="1"
     inkscape:grid-bbox="true">
    <inkscape:grid
       type="xygrid"
       id="grid23" />
  </sodipodi:namedview>
  <metadata
     id="metadata13">
    <rdf:RDF>
      <cc:Work
         rdf:about="">
        <dc:format>image/svg+xml</dc:format>
        <dc:type
           rdf:resource="http://purl.org/dc/dcmitype/StillImage" />
        <dc:title></dc:title>
      </cc:Work>
    </rdf:RDF>
  </metadata>
  <g
     inkscape:label="Layer 1"
     inkscape:groupmode="layer"
     id="layer1">
    <path
       style="opacity:1;vector-effect:none;fill:#3e3546;fill-opacity:1;paint-order:stroke fill markers"
       d="M 6,0 V 3 H 5 V 2 H 4 V 1 H 1 V 4 H 2 V 5 H 3 V 6 H 0 v 4 h 3 v 1 H 2 v 1 H 1 v 3 h 3 v -1 h 1 v -1 h 1 v 3 h 4 v -3 h 1 v 1 h 1 v 1 h 3 v -3 h -1 v -1 h -1 v -1 h 3 V 6 H 13 V 5 h 1 V 4 h 1 V 1 H 12 V 2 H 11 V 3 H 10 V 0 Z m 1,6 h 2 v 1 h 1 V 9 H 9 v 1 H 7 V 9 H 6 V 7 h 1 z"
       id="rect232"
       inkscape:connector-curvature="0" />
    <path
       style="opacity:1;vector-effect:none;fill:#966c6c;fill-opacity:1;paint-order:stroke fill markers"
       d="M 7 1 L 7 4 L 5 4 L 5 3 L 4 3 L 4 2 L 2 2 L 2 4 L 3 4 L 3 5 L 4 5 L 4 7 L 1 7 L 1 9 L 4 9 L 4 11 L 3 11 L 3 12 L 2 12 L 2 14 L 4 14 L 4 13 L 5 13 L 5 12 L 7 12 L 7 15 L 9 15 L 9 12 L 11 12 L 11 13 L 12 13 L 12 14 L 14 14 L 14 12 L 13 12 L 13 11 L 12 11 L 12 9 L 15 9 L 15 7 L 12 7 L 12 5 L 13 5 L 13 4 L 14 4 L 14 2 L 12 2 L 12 3 L 11 3 L 11 4 L 9 4 L 9 1 L 7 1 z M 7 5 L 9 5 L 9 6 L 10 6 L 10 7 L 11 7 L 11 9 L 10 9 L 10 10 L 9 10 L 9 11 L 7 11 L 7 10 L 6 10 L 6 9 L 5 9 L 5 7 L 6 7 L 6 6 L 7 6 L 7 5 z "
       id="rect267" />
    <path
       style="opacity:1;vector-effect:none;fill:#ab947a;fill-opacity:1;paint-order:stroke fill markers"
       d="M 7 1 L 7 2 L 9 2 L 9 1 L 7 1 z M 2 2 L 2 3 L 4 3 L 4 2 L 2 2 z M 4 3 L 4 4 L 5 4 L 5 3 L 4 3 z M 12 2 L 12 3 L 14 3 L 14 2 L 12 2 z M 12 3 L 11 3 L 11 4 L 12 4 L 12 3 z M 1 7 L 1 8 L 4 8 L 4 7 L 1 7 z M 12 7 L 12 8 L 15 8 L 15 7 L 12 7 z M 5 9 L 5 10 L 6 10 L 6 9 L 5 9 z M 6 10 L 6 11 L 7 11 L 7 10 L 6 10 z M 7 11 L 7 12 L 9 12 L 9 11 L 7 11 z M 9 11 L 10 11 L 10 10 L 9 10 L 9 11 z M 10 10 L 11 10 L 11 9 L 10 9 L 10 10 z "
       id="rect333" />
    <path
       style="opacity:1;vector-effect:none;fill:#625565;fill-opacity:1;paint-order:stroke fill markers"
       d="M 7 4 L 7 5 L 9 5 L 9 4 L 7 4 z M 9 5 L 9 6 L 10 6 L 10 5 L 9 5 z M 10 6 L 10 7 L 11 7 L 11 6 L 10 6 z M 7 5 L 6 5 L 6 6 L 7 6 L 7 5 z M 6 6 L 5 6 L 5 7 L 6 7 L 6 6 z M 5 11 L 5 12 L 7 12 L 7 11 L 5 11 z M 5 12 L 4 12 L 4 13 L 5 13 L 5 12 z M 4 13 L 2 13 L 2 14 L 4 14 L 4 13 z M 9 11 L 9 12 L 11 12 L 11 11 L 9 11 z M 11 12 L 11 13 L 12 13 L 12 12 L 11 12 z M 12 13 L 12 14 L 14 14 L 14 13 L 12 13 z M 7 14 L 7 15 L 9 15 L 9 14 L 7 14 z "
       id="rect350" />
  </g>
</svg>
