<?xml version="1.0" encoding="UTF-8" standalone="no"?>
<!-- Created with Inkscape (http://www.inkscape.org/) -->

<svg
   xmlns:dc="http://purl.org/dc/elements/1.1/"
   xmlns:cc="http://creativecommons.org/ns#"
   xmlns:rdf="http://www.w3.org/1999/02/22-rdf-syntax-ns#"
   xmlns:svg="http://www.w3.org/2000/svg"
   xmlns="http://www.w3.org/2000/svg"
   xmlns:sodipodi="http://sodipodi.sourceforge.net/DTD/sodipodi-0.dtd"
   xmlns:inkscape="http://www.inkscape.org/namespaces/inkscape"
   width="16px"
   height="16px"
   viewBox="0 0 16 16"
   version="1.1"
   id="SVGRoot"
   inkscape:version="0.92.4 (5da689c313, 2019-01-14)"
   sodipodi:docname="virtualbox.svg">
  <defs
     id="defs10" />
  <sodipodi:namedview
     id="base"
     pagecolor="#ffffff"
     bordercolor="#666666"
     borderopacity="1.0"
     inkscape:pageopacity="0.0"
     inkscape:pageshadow="2"
     inkscape:zoom="22.627417"
     inkscape:cx="5.4967698"
     inkscape:cy="6.9864053"
     inkscape:document-units="px"
     inkscape:current-layer="layer1"
     showgrid="true"
     inkscape:window-width="1280"
     inkscape:window-height="753"
     inkscape:window-x="-6"
     inkscape:window-y="-6"
     inkscape:window-maximized="1"
     inkscape:grid-bbox="true">
    <inkscape:grid
       type="xygrid"
       id="grid23" />
  </sodipodi:namedview>
  <metadata
     id="metadata13">
    <rdf:RDF>
      <cc:Work
         rdf:about="">
        <dc:format>image/svg+xml</dc:format>
        <dc:type
           rdf:resource="http://purl.org/dc/dcmitype/StillImage" />
        <dc:title></dc:title>
      </cc:Work>
    </rdf:RDF>
  </metadata>
  <g
     inkscape:label="Layer 1"
     inkscape:groupmode="layer"
     id="layer1">
    <path
       style="opacity:1;vector-effect:none;fill:#3e3546;fill-opacity:1;paint-order:stroke fill markers"
       d="M 1 0 L 1 1 L 0 1 L 0 15 L 1 15 L 1 16 L 15 16 L 15 15 L 16 15 L 16 1 L 15 1 L 15 0 L 1 0 z "
       id="rect393" />
    <rect
       style="opacity:1;vector-effect:none;fill:#4d9be6;fill-opacity:1;paint-order:stroke fill markers"
       id="rect16"
       width="14"
       height="14"
       x="1"
       y="1" />
    <rect
       style="opacity:1;vector-effect:none;fill:#8fd3ff;fill-opacity:1;paint-order:stroke fill markers"
       id="rect18"
       width="14"
       height="1"
       x="1"
       y="1" />
    <rect
       style="opacity:1;vector-effect:none;fill:#4d65b4;fill-opacity:1;paint-order:stroke fill markers"
       id="rect20"
       width="14"
       height="1"
       x="1"
       y="14" />
    <rect
       style="opacity:1;vector-effect:none;fill:#4d65b4;fill-opacity:1;paint-order:stroke fill markers"
       id="rect62"
       width="12"
       height="10"
       x="2"
       y="3" />
    <path
       style="opacity:1;vector-effect:none;fill:#ffffff;fill-opacity:1;stroke-width:0.70710677;paint-order:stroke fill markers"
       d="M 7 4 L 7 6 L 8 6 L 8 4 L 7 4 z M 8 6 L 8 8 L 9 8 L 9 6 L 8 6 z M 9 8 L 9 10 L 10 10 L 10 8 L 9 8 z M 10 8 L 11 8 L 11 6 L 10 6 L 10 8 z M 11 6 L 12 6 L 12 4 L 11 4 L 11 6 z M 12 6 L 12 8 L 13 8 L 13 6 L 12 6 z M 13 8 L 13 10 L 14 10 L 14 8 L 13 8 z M 14 10 L 14 11 L 15 11 L 15 10 L 14 10 z M 7 6 L 6 6 L 6 8 L 7 8 L 7 6 z M 6 8 L 5 8 L 5 10 L 6 10 L 6 8 z M 5 10 L 4 10 L 4 12 L 5 12 L 5 10 z M 4 10 L 4 8 L 3 8 L 3 10 L 4 10 z M 3 8 L 3 7 L 1 7 L 1 8 L 3 8 z "
       id="rect31" />
  </g>
</svg>
