<?xml version="1.0" encoding="UTF-8" standalone="no"?>
<!-- Created with Inkscape (http://www.inkscape.org/) -->

<svg
   xmlns:dc="http://purl.org/dc/elements/1.1/"
   xmlns:cc="http://creativecommons.org/ns#"
   xmlns:rdf="http://www.w3.org/1999/02/22-rdf-syntax-ns#"
   xmlns:svg="http://www.w3.org/2000/svg"
   xmlns="http://www.w3.org/2000/svg"
   xmlns:sodipodi="http://sodipodi.sourceforge.net/DTD/sodipodi-0.dtd"
   xmlns:inkscape="http://www.inkscape.org/namespaces/inkscape"
   width="16px"
   height="16px"
   viewBox="0 0 16 16"
   version="1.1"
   id="SVGRoot"
   inkscape:version="0.92.4 (5da689c313, 2019-01-14)"
   sodipodi:docname="youtube.svg">
  <defs
     id="defs10" />
  <sodipodi:namedview
     id="base"
     pagecolor="#ffffff"
     bordercolor="#666666"
     borderopacity="1.0"
     inkscape:pageopacity="0.0"
     inkscape:pageshadow="2"
     inkscape:zoom="22.627417"
     inkscape:cx="8.1707769"
     inkscape:cy="7.40625"
     inkscape:document-units="px"
     inkscape:current-layer="layer1"
     showgrid="true"
     inkscape:window-width="1280"
     inkscape:window-height="753"
     inkscape:window-x="-6"
     inkscape:window-y="-6"
     inkscape:window-maximized="1"
     inkscape:grid-bbox="true">
    <inkscape:grid
       type="xygrid"
       id="grid23" />
  </sodipodi:namedview>
  <metadata
     id="metadata13">
    <rdf:RDF>
      <cc:Work
         rdf:about="">
        <dc:format>image/svg+xml</dc:format>
        <dc:type
           rdf:resource="http://purl.org/dc/dcmitype/StillImage" />
        <dc:title />
      </cc:Work>
    </rdf:RDF>
  </metadata>
  <g
     inkscape:label="Layer 1"
     inkscape:groupmode="layer"
     id="layer1">
    <path
       style="opacity:1;vector-effect:none;fill:#3e3546;fill-opacity:1;stroke-width:1.15470052;paint-order:stroke fill markers"
       d="M 3 2 L 3 3 L 1 3 L 1 4 L 0 4 L 0 12 L 1 12 L 1 13 L 3 13 L 3 14 L 13 14 L 13 13 L 15 13 L 15 12 L 16 12 L 16 4 L 15 4 L 15 3 L 13 3 L 13 2 L 3 2 z "
       id="rect886" />
    <path
       style="opacity:1;vector-effect:none;fill:#c32454;fill-opacity:1;paint-order:stroke fill markers"
       d="M 3 3 L 3 4 L 1 4 L 1 12 L 3 12 L 3 13 L 13 13 L 13 12 L 15 12 L 15 4 L 13 4 L 13 3 L 3 3 z "
       id="rect893" />
    <path
       style="opacity:1;vector-effect:none;fill:#f04f78;fill-opacity:1;paint-order:stroke fill markers"
       d="M 3 3 L 3 4 L 13 4 L 13 3 L 3 3 z M 13 4 L 13 5 L 15 5 L 15 4 L 13 4 z M 3 4 L 1 4 L 1 5 L 3 5 L 3 4 z "
       id="rect898" />
    <path
       style="opacity:1;vector-effect:none;fill:#831c5d;fill-opacity:1;paint-order:stroke fill markers"
       d="M 1 11 L 1 12 L 3 12 L 3 11 L 1 11 z M 3 12 L 3 13 L 13 13 L 13 12 L 3 12 z M 13 12 L 15 12 L 15 11 L 13 11 L 13 12 z "
       id="rect904" />
    <path
       style="opacity:1;vector-effect:none;fill:#ffffff;fill-opacity:1;stroke-width:1.41421354;paint-order:stroke fill markers"
       d="M 6 6 L 6 10 L 8 10 L 8 9 L 10 9 L 10 7 L 8 7 L 8 6 L 6 6 z "
       id="rect912" />
    <rect
       style="opacity:1;vector-effect:none;fill:#ffffff;fill-opacity:1;paint-order:stroke fill markers"
       id="rect935"
       width="2"
       height="1"
       x="6"
       y="6" />
  </g>
</svg>
